<?xml version="1.0"?>
<svg xmlns:rdf="http://www.w3.org/1999/02/22-rdf-syntax-ns#" xmlns="http://www.w3.org/2000/svg" xmlns:cc="http://web.resource.org/cc/" xmlns:dc="http://purl.org/dc/elements/1.1/" xmlns:svg="http://www.w3.org/2000/svg" id="Layer_1" xml:space="preserve" viewBox="0 0 329.786 472.766" version="1.0">
<g id="g5">
	<path id="path7" d="m24.011 64.22l7.536 12.033 7.302 10.864-0.059 1.285 2.804 3.739 1.051 0.117 12.909 19.162c-0.817 0.87-0.992 1.69-0.759 2.68 0.117 0.88 0.876 1.93 2.044 2.93-0.234 0.41 0 1.51 0.935 3.09 0.876 1.58 2.395 3.51 4.323 6.48 1.752 2.87 3.563 6.31 5.899 10.58-0.059 0.82 0.234 1.52 0.643 2.33 0.351 0.65 1.052 1.41 1.869 2.05l4.616 7.88c-0.468 1.81-0.468 2.98-0.234 3.98 0.117 0.76 0.701 1.34 1.519 1.28-0.175 0.88 0.175 1.52 0.409 2.16 0.408 0.53 0.701 1 1.519 1.4l7.419 10.87c-0.409 1.17-0.409 1.87 0 2.57 0.233 0.47 0.876 0.94 1.927 0.94l5.608 7.41c-0.057 1.41 0.234 2.57 0.643 3.27 0.409 0.65 1.051 0.82 1.927 0.76l4.209 4.91c-0.177 1.4-0.06 2.51 0.35 3.33 0.41 0.7 1.11 1.11 2.1 1.23l4.32 6.31c-0.11 1.4 0.12 2.74 0.24 4.26 0.06 1.4 0.47 3.15 0.76 4.56 0.29 1.11 0.76 2.1 1.16 3.21 0.41 1.11 1.23 2.34 1.52 3.45 0.18 0.81 0.18 1.57-0.23 2.04-0.99 0.29-1.58 0.64-1.52 1.28 0.06 0.65 0.64 1.47 1.52 2.22 0.76 0.53 1.87 1.06 2.69 1.12 0.58-0.12 0.76-1.12 0.76-1.64 0-0.64-0.41-1.17-1-1.81 0-1.29-0.06-2.4-0.4-3.57-0.47-1.1-1.29-2.1-1.76-3.21-0.58-1.28-1.34-2.92-1.4-4.2-0.29-1.46-0.23-2.87-0.06-4.21l1.7 2.4c-0.18 1.1 0.17 1.92 0.4 3.09 0.24 0.99 0.71 1.81 1.41 3.16 0.46 1.11 1.75 2.8 2.27 3.97 0.36 1.05 0.65 1.75 0.65 2.8-0.06 0.94-0.24 1.93-0.53 2.98-0.64-0.12-1.22-0.17-1.28 0.47-0.3 0.47-0.3 1.69 0.23 2.57 0.29 0.58 2.22 1.75 2.86 1.93 0.59 0 1.17-0.7 1.29-1.17 0.12-0.53-0.18-1.29-0.64-2.04 0.4-0.18 0.7-0.59 0.87-1.23 0-0.76-0.06-1.75-0.41-2.98 0.82 0.87 1.64 2.1 2.22 3.45 0.59 1.34 0.94 2.8 1.29 4.61-1.4-0.58-2.34-0.7-2.57-0.12-0.41 0.59 0.06 2.11 0.76 3.22 0.64 0.75 1.57 1.4 3.03 1.92-0.29 1.52-0.35 2.57 0.3 3.39 0.58 0.53 1.4 0.76 2.92 0.94 1.34 0.11 2.98 0.23 5.14 0.11l5.08 7.19c-0.41 0.76-0.29 1.52 0.12 2.04 0.41 0.59 1.22 0.94 2.45 1.29 0.58 1.17 1.81 2.92 3.45 5.49 1.52 2.45 3.68 5.49 6.25 9.35-0.41 1.22-0.41 2.04 0 2.68 0.23 0.53 0.87 0.82 1.92 0.88l7.95 11.62c-0.59 0.99-0.7 1.7-0.35 2.11 0.35 0.4 0.99 0.4 2.16 0.23 1.05 1.63 1.87 2.86 2.69 3.45 0.75 0.4 1.51 0.4 2.04 0 0.41-0.3 0.7-1.23 0.88-2.17-0.12 0.12 0 0.29 0.35 0.76 0.35 0.35 0.58 0.82 1.34 1.41l-0.29 1.16c-1.93 0.41-3.39 1.17-4.62 1.81-1.22 0.59-2.45 1.47-2.8 2.4-0.58 0.87-0.47 2.27-0.12 3.33 0.41 1.05 1.29 1.87 2.4 2.45 0.93 0.29 2.1 0.23 3.5-0.41-0.41 0.59-0.41 1.05 0 1.4 0.35 0.3 1.11 0.47 2.28 0.53-1.28 1.87-1.93 3.45-1.93 4.73-0.05 1.23 0.76 2.16 1.82 2.8 0.99 0.59 2.27 0.88 4.08 0.88 1.52 1.4 2.92 2.04 4.44 2.16 1.41 0.06 2.69-0.64 4.09-1.87 1.35 1.69 2.46 3.04 3.33 3.8 0.76 0.76 1.29 1.11 1.58 1.05-1.05 1.05-1.75 1.87-2.34 2.69-0.7 0.7-1.11 1.4-0.99 1.87 0.06 0.47 0.99 0.7 2.16 0.93-0.23 1.58 0.23 2.81 0.76 3.22 0.7 0.52 1.46 0.23 2.92-0.41 2.86 1.75 4.97 3.38 6.54 5.14 1.47 1.4 0.18 1.28 2.69 4.85 2.4 3.79 7.89 11.5 11.74 17.29 3.68 5.43 7.07 10.63 10.4 15.59-0.41 0-0.7 0.29-0.88 0.65-0.29 0.23-0.46 0.7-0.29 1.4 0.06 0.58 0.64 1.4 1.29 2.45-0.41 0.53-0.59 1.23-0.53 1.64 0 0.52 0.06 0.76 0.64 1.17 0.35 0.23 1.23 0.46 2.16 0.46 1.17 1.82 2.28 3.16 3.33 4.03 0.88 0.71 2.11 1 2.81 0.88 0.58-0.12 1.11-0.7 1.34-1.52l3.45 6.37-0.18 0.99 2.57 4.79 1.05 0.23c5.2 10.28 9.7 18.93 13.26 25.7 3.51 6.78 5.14 8.83 8.3 14.96 3.1 5.96 7.48 15.25 9.99 20.91 2.28 5.37 3.03 9.17 3.85 12.33 0.7 3.21 0.76 5.43 0.41 6.89-1.05 1.23-1.75 2.57-2.33 3.8-0.53 1.22-0.94 2.39-1 3.5 3.45 0.76 6.95 0.76 10.75 0 3.56-0.88 7.13-2.51 11.62-4.91 4.5-2.51 11.69-6.95 15.72-9.46 3.97-2.68 6.42-4.5 7.82-5.9 3.27-2.22 5.96-4.55 8.3-6.77 2.22-2.4 4.09-5.14 5.37-7.13 1.11-2.1 1.58-3.97 1.87-5.14 0.18-1.4 0.06-2.11-0.35-2.57-3.8 0.35-6.78 0.06-9.17-0.24-2.45-0.52-3.27-1.05-5.14-2.27-1.99-1.46-3.97-3.1-6.43-5.55-2.57-2.4-4.84-4.67-8.64-8.65-3.98-4.26-9.93-10.63-14.96-16.41-5.14-5.84-11.62-13.44-15.65-18.28-4.21-4.97-7.3-8.65-9.29-11.04l-0.06-1.23-3.38-4.5-1.17-0.23c-4.68-6.49-9-12.68-13.44-18.81-4.38-6.31-8.64-12.09-12.79-18.05-0.24-1.17-0.59-2.1-1.05-2.8-0.65-0.88-1.11-1.47-2.05-1.99-4.67-6.6-8.64-12.8-12.79-18.58-4.09-6.01-7.83-11.33-11.45-16.59 0.41-0.64 0.41-1.75 0.23-2.68-0.29-1.11-0.75-2.87-1.63-3.68-0.99-1.06-2.46-1.76-4.15-2.34-1.81-2.45-3.68-5.38-5.84-8.53-2.28-3.33-4.79-7.36-7.3-10.98-2.51-3.74-5.14-7.36-7.65-11.1 1.28-0.47 2.16-0.99 2.63-1.57 0.35-0.82 0.05-1.58-0.24-2.05-0.58-0.59-1.69-0.64-2.39-0.64-0.65-0.06-1.4 0.41-1.82 0.93l-1.28-1.4c1.69-1.17 2.8-2.1 3.1-2.8 0.23-0.88-0.65-1.52-1.29-1.7-0.7-0.29-1.81-0.12-3.09 0.29 2.56-1.4 4.2-2.68 5.14-3.85 0.64-1.4 0.4-2.51 0-3.56-0.47-1.06-1.11-2.57-2.16-2.75-1-0.29-2.69 0.06-3.98 0.82-1.52 0.47-3.1 1.4-4.73 2.57-4.91-6.84-8.76-12.09-12.03-16.65-3.27-4.44-5.67-7.88-7.42-10.1 1.58-3.51 2.63-6.08 2.92-7.71 0.06-1.7-0.23-2.34-1.11-2.63-0.87-0.47-2.28-0.65-3.33-0.29-1.22 0.35-2.39 0.99-3.5 2.16-1.76-2.81-3.62-5.43-5.38-8.12-1.87-2.75-3.85-5.32-5.72-7.95 0.29-1.63 0.17-2.92-0.12-4.08-0.41-1.23-1.05-2.17-1.93-2.81-0.87-0.64-1.98-0.99-3.33-1.05l-11.27-16.88c-0.06-2.28-0.35-4.15-0.88-5.61-0.52-1.69-1.28-2.92-2.27-3.68-1.11-0.76-2.69-1.11-4.5-0.82l-1.17-1.86c0.35-1.17 0.23-2.34-0.12-3.74-0.41-1.46-0.99-2.92-2.39-4.62-1.52-1.81-3.858-3.85-6.779-6.13l-4.615-7.83c1.168-0.35 2.104-0.7 2.804-1.28 0.585-0.7 0.994-1.35 0.994-1.93-0.233-0.76-0.701-1.7-1.402-1.87-0.759-0.29-2.103-0.06-2.687 0.47-0.701 0.41-1.285 1.05-1.519 2.16-0.76-0.76-2.512-3.33-5.257-7.48-2.92-4.44-8.12-12.442-11.507-17.7-3.388-5.199-6.367-9.579-8.704-13.143v-1.057l-2.92-4.206-0.993-0.526-4.498-6.601c-3.33-4.731-6.134-8.762-9.054-12.734-2.921-3.971-5.549-7.476-8.12-10.748v-0.935l-0.701-1.109c0.467-0.292 0.876-0.876 0.993-1.286 0.059-0.642 0.059-1.402-0.234-1.811-0.466-0.583-1.226-1.051-1.811-1.167-0.701-0.234-1.343-0.234-1.928 0l-1.752-3.155-1.168-0.409-2.57-3.563c0.643-0.876 0.994-1.577 1.052-2.336-0.058-0.935-0.292-1.811-0.935-2.162-0.759-0.408-1.752-0.292-3.212 0.117l-2.688-2.628-1.343-0.41c-4.731-6.659-8.646-11.74-11.508-15.479-2.98-3.738-4.908-5.958-6.018-6.659l-3.388 3.33c-0.351 1.344-0.468 3.855-0.351 7.301-0.058 3.505 0.117 7.711 0.526 13.319l5.082 9.463-0.234 1.285c0.759 1.928 2.044 3.972 3.212 6.366 1.402 2.22 2.921 6.017 4.323 7.536 0.935 1.46 1.87 1.928 2.161 1.403l1.285 1.518-0.468 0.818 1.344 2.162 0.935 0.35c1.929 3.096 3.857 6.191 5.784 9.346z" fill-rule="evenodd" stroke="#000" stroke-miterlimit="10" stroke-width=".036"/>
</g>
<metadata><rdf:RDF><cc:Work><dc:format>image/svg+xml</dc:format><dc:type rdf:resource="http://purl.org/dc/dcmitype/StillImage"/><cc:license rdf:resource="http://creativecommons.org/licenses/publicdomain/"/><dc:publisher><cc:Agent rdf:about="http://openclipart.org/"><dc:title>Openclipart</dc:title></cc:Agent></dc:publisher><dc:title>Clarinet</dc:title><dc:date>2006-10-17T10:39:49</dc:date><dc:description>To fulfill a request for a clarinet in the WIKI requests page.</dc:description><dc:source>http://openclipart.org/detail/9063/clarinet-by-gerald_g-9063</dc:source><dc:creator><cc:Agent><dc:title>Gerald_G</dc:title></cc:Agent></dc:creator><dc:subject><rdf:Bag><rdf:li>clarinet</rdf:li><rdf:li>clip art</rdf:li><rdf:li>clipart</rdf:li><rdf:li>instrument</rdf:li><rdf:li>music</rdf:li><rdf:li>silhouette</rdf:li></rdf:Bag></dc:subject></cc:Work><cc:License rdf:about="http://creativecommons.org/licenses/publicdomain/"><cc:permits rdf:resource="http://creativecommons.org/ns#Reproduction"/><cc:permits rdf:resource="http://creativecommons.org/ns#Distribution"/><cc:permits rdf:resource="http://creativecommons.org/ns#DerivativeWorks"/></cc:License></rdf:RDF></metadata></svg>
