<?xml version="1.0"?>
<svg xmlns:rdf="http://www.w3.org/1999/02/22-rdf-syntax-ns#" xmlns="http://www.w3.org/2000/svg" xmlns:cc="http://web.resource.org/cc/" xmlns:dc="http://purl.org/dc/elements/1.1/" xmlns:svg="http://www.w3.org/2000/svg" id="svg2" viewBox="0 0 552.71 578.744" version="1.0">
  <g id="g2555" fill-rule="evenodd">
    <path id="path9" fill="#fff" d="m202.06 326.81c9.12 0 16.53 7.41 16.53 16.53s-7.41 16.52-16.53 16.52-16.52-7.4-16.52-16.52 7.4-16.53 16.52-16.53"/>
    <path id="path11" stroke="#000" stroke-width=".036" stroke-miterlimit="10" d="m0.02 553.56c0.432-1.15 1.08-2.05 1.8-2.7 0.756-0.69 1.656-1.33 2.7-1.55 0.936-0.32 1.692-0.39 2.664-0.22l34.92-36.93-2.916-2.92c-1.692 0.22-3.06 0.07-4.248-0.43-1.296-0.54-2.196-0.97-2.7-2.7-0.648-1.84-1.692-4.93-0.216-8.03 1.512-3.24 4.896-8.17 9.18-10.76 4.104-2.77 12.096-5.33 15.66-4.9 3.564 0.47 5.22 3.02 5.364 7.82l16.776-14.76-2.016-3.57c-3.24 0.79-5.652 0.47-7.38-0.97-1.836-1.55-3.492-4.57-2.88-7.81 0.648-3.39 3.204-8.39 6.696-11.67 3.348-3.38 10.044-6.91 13.86-7.81 3.708-0.9 6.948 0.83 8.748 2.66 1.836 1.77 2.412 4.5 2.016 8.07l8.932-9.4c-3.24-0.9-5.66-1.94-7.384-3.13-1.8-1.19-3.276-2.67-2.916-4.03 0.396-1.41 1.908-3.1 4.93-4.68-1.942-1.62-3.058-3.32-3.346-4.94-0.36-1.72-0.54-2.7 1.548-5.14 2.128-2.56 7.958-8.32 10.978-10.08 2.88-1.84 5.04-2.13 6.48-0.87-1.15-2.59-1.51-4.93-0.68-6.73 0.79-1.83 3.02-3.42 5.15-4.46 1.98-1.19 3.92-2.81 6.94-2.23 2.96 0.47 6.66 2.3 10.98 5.36l3.35-3.81-6.95-5.8c-1.98-0.76-3.13-1.66-3.6-2.7-0.61-1.23-0.43-2.77 0.69-3.82 1.04-1 2.99-1.62 5.83-1.98l2.88-2.26c-1.19-1.05-1.66-1.88-1.55-2.88 0.07-1.05 1.05-2.2 2.23-2.92 1.16-0.83 2.6-1.22 4.47-1.58l11.88-11.42c-0.69-1.51-0.94-2.8-0.9-4.03-0.07-1.22 0.25-2.59 1.11-3.13 0.8-0.69 2.24-0.9 4.04-0.65l6.69-6.48c0.4-1.69 1.12-2.84 2.02-3.6 0.9-0.79 1.98-1.04 3.38-0.9l19.66-17.89c-0.18-1.94 0.25-3.38 1.15-4.46s2.27-1.8 4.25-2.02l84.09-87.34c13.22-13.39 24.81-24.87 35.36-35.28 10.47-10.33 19.44-19.08 27.32-26.38-0.5-2.42-0.29-3.96 0.65-4.94 0.86-0.9 2.48-1.22 4.71-0.68l5.37-4.9c-0.72-2.48-0.51-4.1 0.65-5.14 1.08-0.98 3.09-1.37 6.04-0.9 1.91-3.14 3.42-4.76 4.94-5.15 1.33-0.47 3.16 1.8 3.56 2.91 0.4 1.05-0.14 2.24-1.33 3.57l7.16 5.15 17.25-17.25c0.07-1.65 0.28-3.02 0.64-4.25 0.29-1.33 0.15-2.37 1.37-3.13 1.19-0.75 2.95-1.08 5.58-1.11l19.69-21.24c-0.65-1.55-0.5-2.88 0.43-4.14 0.94-1.37 3.28-2.81 4.94-3.35 1.55-0.58 2.91-0.58 4.24 0l53.03-53.931c-1.08-0.36-1.87-0.828-2.23-1.8-0.54-0.9-2.23-1.188-0.22-3.78 2.02-2.736 7.96-8.352 12.28-12.564 4.25-4.392 8.86-10.332 13-12.96 3.99-2.556 7.59-3.42 10.94-2.448l14.33-15.049c-0.4-0.972-0.14-1.872 0.47-2.7 0.61-0.9 1.73-2.088 3.35-2.448 1.62-0.468 3.88-0.792 6.26 0 2.34 0.648 5.87 1.368 7.38 4.248 1.33 2.808 1.51 7.056 0.69 12.744l-93.53 98.678-9.18 9.83c0.47 2.16-0.11 3.81-1.34 5.36-1.26 1.48-3.56 2.56-6.51 3.38l-18.79 20.34c0.43 1.59 0.14 3.03-0.87 4.47-1.11 1.47-4.21 3.27-5.4 4.03-1.26 0.61-1.8 0.54-1.76-0.22l-110.31 116.68c-0.28 2.16-0.79 4.03-1.8 5.62-0.97 1.54-1.94 2.66-4.03 3.78-2.23 1-5.29 1.83-9.18 2.48 0.83 2.34 2.38 3.27 4.5 3.35 2.05-0.15 5.51-3.24 8.28-3.6 2.77-0.43 6.3-0.07 8.5 1.36 2.23 1.45 5.11 4.76 4.46 7.17-0.83 2.38-5.65 5.58-9.18 6.7-3.74 0.86-8.82 0.46-12.31-0.9-3.42-1.34-6.23-3.93-8.28-7.39 0.58 4.94 0 8.79-1.33 11.42-1.44 2.55-5.08 3.67-7.17 4.46-2.19 0.72-3.96 0.9-5.58 0.25l-105.15 111.24c1.08 3.24 0.93 5.58-0.43 7.17-1.44 1.54-3.96 2.34-7.85 2.23 1.04 4.28 1.19 8.06 0.43 11.63-0.86 3.52-3.17 6.66-5.11 9.39-1.98 2.67-3.78 5.4-6.52 6.27-2.84 0.68-6.23 0.18-10.29-1.8l-105.81 111.67c0.218 1.01-0.178 1.98-0.898 3.06-0.756 1.01-2.124 2.05-3.816 3.13-6.228-3.63-11.268-7.38-15.66-11.63-4.357-4.24-7.74-8.71-10.296-13.53z"/>
    <path id="path13" d="m9.308 548.66l33.696-34.31c-0.288 1.37-0.036 2.56 0.612 3.71 0.648 1.08 1.836 2.02 3.42 2.81l-32.148 33.05c-1.008-0.58-1.8-1.3-2.772-2.16-0.972-0.94-1.908-1.87-2.808-3.1z" stroke="#000" stroke-miterlimit="10" stroke-width=".036" fill="#fff"/>
    <path id="path15" d="m21.08 559.5c9.864-10.51 19.404-20.49 29.052-30.32 9.612-9.86 18.792-19.18 28.116-28.4l3.384 2.45-56.232 60.26-4.32-3.99z" stroke="#000" stroke-miterlimit="10" stroke-width=".036" fill="#fff"/>
    <path id="path17" d="m26.624 565.04l58.716-61.81c-2.268-3.28-3.456-5.44-3.708-6.48-0.324-1.11 1.044-0.61 2.16 0 1.116 0.47 2.52 1.55 4.356 3.1l42.012-43.89c0.9 1.12 1.73 1.95 2.77 2.77 1.01 0.76 1.95 1.37 3.1 1.84l-105.7 109.73c-1.222-1.73-2.446-3.49-3.706-5.26z" stroke="#000" stroke-miterlimit="10" stroke-width=".036" fill="#fff"/>
    <path id="path19" d="m33.104 497.69c1.476-2.27 3.132-4 4.968-5.58 1.728-1.52 3.456-2.56 5.868-3.71 2.484-1.19 5.184-2.56 8.64-3.71-3.96 2.77-7.2 5.15-9.864 7.42-2.664 2.16-4.68 4.86-6.192 5.87-1.584 0.86-2.773 0.86-3.42-0.29z" stroke="#000" stroke-miterlimit="10" stroke-width=".036" fill="#fff"/>
    <path id="path21" d="m37.46 500.14c-2.16 0.53-3.348 1.29-3.708 2.8-0.432 1.41-0.432 5.62 1.548 5.55 2.016-0.29 6.336-3.75 10.188-6.48 3.78-2.85 9.468-7.63 12.06-9.9 2.376-2.34 3.24-3.53 2.448-3.71-0.324-1.48-0.792-2.41-1.548-3.1-0.828-0.68-1.8-0.93-3.06-0.9-1.8 2.34-4.176 4.72-7.128 7.42-3.096 2.59-6.516 5.36-10.8 8.32z" stroke="#000" stroke-miterlimit="10" stroke-width=".036" fill="#fff"/>
    <path id="path23" d="m57.836 497.69l-10.188 11.12 0.612 5.54c-0.504 0.73-0.504 0.73 0 0 0.36-0.75 1.188-1.97 2.772-4.64 1.656-2.85 3.744-6.8 6.804-12.02z" stroke="#000" stroke-miterlimit="10" stroke-width=".036" fill="#fff"/>
    <path id="path25" d="m45.164 513.74c-0.432 0.79-0.576 1.51-0.288 2.16 0.216 0.54 0.828 1.19 1.836 1.55 0.612-1.08 0.864-1.91 0.612-2.48-0.252-0.58-0.972-1.12-2.16-1.23z" stroke="#000" stroke-miterlimit="10" stroke-width=".036" fill="#fff"/>
    <path id="path27" d="m57.224 501.07l-4.032 8.03 5.256-4-1.224-4.03z" stroke="#000" stroke-miterlimit="10" stroke-width=".036" fill="#fff"/>
    <path id="path29" d="m64.316 491.17l15.156-13.57c0.576 1.12 1.296 1.37 2.16 0.61 0.792-0.76 1.728-2.41 2.808-4.97v4.36l-20.124 19.76v-6.19z" stroke="#000" stroke-miterlimit="10" stroke-width=".036" fill="#fff"/>
    <path id="path31" d="m73.928 494.27l-21.96 22.89c-3.24 5.04-3.6 6.62-1.224 4.61 2.376-2.05 11.556-12.75 15.444-16.67 3.816-4.07 6.048-6.3 7.092-7.13 4.572-2.66 4.32-1.37-0.612 4.03-5.04 5.37-14.724 14.69-29.34 28.12 0.036 2.16 3.168 0.36 9.252-5.26 6.12-5.76 15.048-15.19 27.216-28.72 0.576-3.86 0.324-5.87-0.612-6.2-0.972-0.25-2.772 1.01-5.256 4.33z" stroke="#000" stroke-miterlimit="10" stroke-width=".036" fill="#fff"/>
    <path id="path33" d="m70.22 465.54c3.996-0.83 7.704-2.85 11.412-6.19 3.636-3.42 7.092-7.92 10.512-13.9 2.412 1.4 3.744 3.21 3.708 5.26 0.036 2.01-1.296 4.43-3.708 7.09 4.104 0.04 5.76 1.08 5.256 3.42-0.576 2.3-3.456 5.65-8.64 10.19 0.18-1.37 0.54-2.67 1.224-4.03 0.576-1.52 2.7-3.28 2.772-4.32 0.072-1.08-0.648-1.7-2.16-1.84-3.78 3.2-6.588 5.47-8.964 7.09-2.376 1.51-3.096 2.56-4.932 2.16-1.908-0.54-4.068-2.05-6.48-4.93z" stroke="#000" stroke-miterlimit="10" stroke-width=".036" fill="#fff"/>
    <path id="path35" d="m70.508 460.57c-0.288-2.7 0.9-5.08 3.42-7.42 2.556-2.34 6.336-4.5 11.736-6.48-0.72 1.59-1.908 3.14-3.708 4.65-1.908 1.37-5.256 2.81-7.128 4.32-1.944 1.58-3.384 3.09-4.32 4.93z" stroke="#000" stroke-miterlimit="10" stroke-width=".036" fill="#fff"/>
    <path id="path37" d="m100.17 455.02l9.9-10.51c-4.46-1.58-7.45-3.02-8.96-4.32-1.622-1.36-2.09-3.85-0.29-3.7 1.8 0.07 5.51 1.51 11.12 4.32-5.29-3.21-7.77-5.12-7.74-5.87 0.11-0.76 5.66 0.68 8.03 1.55 2.16 0.79 3.96 1.73 5.26 3.09l-16.67 19.77c-0.22-1.44-0.43-2.88-0.65-4.33z" stroke="#000" stroke-miterlimit="10" stroke-width=".036" fill="#fff"/>
    <path id="path39" d="m84.116 483.61l31.824-33.05c0.65-4.14 1.73-6.41 3.1-6.8 1.36-0.44 3.16 1 5.25 4.32 2.31-1.19 0.29 1.51-6.19 8.64-6.55 7.05-17.17 18-32.436 33.37-2.196 0.79-0.756-1.44 4.32-7.09 5.112-5.69 13.576-14.4 25.956-26.57 0.58-2.16-0.97-1.55-4.64 1.83-3.78 3.42-13.072 13.87-17.608 18.26-4.609 4.17-7.704 6.58-9.576 7.09z" stroke="#000" stroke-miterlimit="10" stroke-width=".036" fill="#fff"/>
    <path id="path41" d="m121.81 415.32c-3.03-1.88-5.91-2.34-8.64-1.55-2.85 0.72-5.98 4.03-8.03 6.48-2.23 2.45-4.64 6.19-4.32 8.03 0.36 1.72 2.52 2.55 6.48 2.48 4.82-5.15 9.65-10.29 14.51-15.44z" stroke="#000" stroke-miterlimit="10" stroke-width=".036" fill="#fff"/>
    <path id="path43" d="m124.29 415.93l-14.22 14.83c1.37 2.34 3.17 2.92 5.26 1.88 2.09-1.19 4.93-6.02 7.41-8.36 2.45-2.3 4.72-4.21 7.1-5.58-1.84-0.9-3.68-1.84-5.55-2.77z" stroke="#000" stroke-miterlimit="10" stroke-width=".036" fill="#fff"/>
    <path id="path45" d="m117.81 434.47c8.57-8.17 13.93-13.72 16.38-17.31 2.34-3.46-0.18-3.03-2.16-3.71-2.12-0.76-8.17 0.47-10.22-0.9-2.16-1.59-3.21-6.27-2.16-8.07 1.08-1.9 5.94-2.88 8.35-3.06 2.23-0.25 3.06 0.22 5.26 1.55 2.12 1.26 4.75 3.31 7.74 6.16l3.38-3.1c1.3 0.07 2.12 0.54 2.48 1.55 0.4 0.94 1.59 1.55-0.32 4.32-2.2 2.7-7.74 7.13-12.06 11.77-4.32 4.53-8.75 9.4-13.57 15.12-1.01-1.44-2.05-2.88-3.1-4.32z" stroke="#000" stroke-miterlimit="10" stroke-width=".036" fill="#fff"/>
    <path id="path47" d="m145.32 431.38c-3.6 1.47-6.23 3.85-8.03 7.12-1.84 3.24-2.77 7.31-2.81 12.35 0.65 1.55 1.4 1.55 1.87 0 0.4-1.66-0.21-6.55 1.23-9.25 1.47-2.88 6.37-5.01 7.74-6.8 1.26-1.7 1.26-2.89 0-3.42z" stroke="#000" stroke-miterlimit="10" stroke-width=".036" fill="#fff"/>
    <path id="path49" d="m149.96 427.06c1.12-1.48 5.9-5.01 7.42-5.87 1.4-0.87 2.26-0.18 1.22 1.22-1.3 1.37-6.52 5.91-8.03 6.81-1.51 0.75-1.76-0.94-0.61-2.16z" stroke="#000" stroke-miterlimit="10" stroke-width=".036" fill="#fff"/>
    <path id="path51" d="m151.8 434.18c2.88 1.23 4.39 3.02 4.93 5.55 0.32 2.52-0.87 6.12-2.16 9.28-1.3 2.96-3.42 7.1-5.26 8.97-1.98 1.76-3.71 2.48-5.87 2.16-2.23-0.4-4.46-1.84-7.09-4.32 1.12-0.65 1.98-1.33 2.45-2.2 0.47-0.93-0.07-1.58 0.32-3.06 0.29-1.58 0.44-4.57 1.55-6.19 1.08-1.69 2.95-2.05 4.93-3.71 1.88-1.8 3.89-3.81 6.2-6.48z" stroke="#000" stroke-miterlimit="10" stroke-width=".036" fill="#fff"/>
    <path id="path53" d="m153.34 432.31c2.67 0.72 4.94 1.08 6.81 0.94 1.8-0.25 3.71-0.69 4.32-1.87 0.57-1.19 0.21-2.99-0.94-5.26l61.53-66.13-2.49-1.84-11.73 12.96-3.42-2.16c0 3.56-1.19 6.19-3.71 8.03-2.59 1.76-6.27 2.7-11.41 2.81l3.09 5.54-12.67 13.93-2.81-2.48c0.18 3.82-0.43 6.7-1.83 8.64-1.48 1.87-4.72 1.87-6.81 2.77-2.19 0.83-4.21 1.51-6.19 2.2 2.52 1.01 3.96 2.19 4.03 3.71 0.04 1.47-0.83 2.12-3.42 5.25-2.66 2.99-6.73 7.31-12.35 12.96z" stroke="#000" stroke-miterlimit="10" stroke-width=".036" fill="#fff"/>
    <path id="path55" d="m85.952 491.64l41.438-42.01 1.55 4.31-40.792 42.34c-1.116-0.11-1.8-0.47-2.196-1.22-0.396-0.83-0.396-1.87 0-3.42z" stroke="#000" stroke-miterlimit="10" stroke-width=".036" fill="#fff"/>
    <path id="path57" d="m123.97 440.52l8.96-9.58 3.1 4.61c-1.62 1.15-2.81 3.06-3.71 5.58-0.9 2.48-1.37 5.72-1.55 9.57-2.27-3.38-4.53-6.76-6.8-10.18z" stroke="#000" stroke-miterlimit="10" stroke-width=".036" fill="#fff"/>
    <path id="path59" d="m137.9 426.91c2.3-3.27 4.54-6.26 7.09-8.97 2.52-2.8 4.97-5.18 7.74-7.41l3.39 5.87c-2.42 0.93-4.32 2.23-5.87 4.03-1.59 1.8-2.67 3.81-3.39 6.48-2.26 1.19-3.99 2.09-5.58 3.09-1.58 0.9-2.77 1.73-3.7 2.49 0.1-1.84 0.21-3.71 0.32-5.58z" stroke="#000" stroke-miterlimit="10" stroke-width=".036" fill="#fff"/>
    <path id="path61" d="m158.28 407.15c-1.52-1.05-2.7-2.71-3.71-4.97-1.01-2.49-2.56-6.12-2.16-8.97 0.29-2.91 1.91-6.51 4.03-8.03 2.02-1.51 4.97-1.54 8.03-1.22 2.95 0.14 7.45 1.01 9.9 2.45 2.34 1.4 3.78 3.31 4.32 5.87l-2.49-0.29c1.05 0.68 1.05 0.68 0 0-1.11-0.83-4.06-3.57-6.48-4.32-2.59-0.79-6.3-1.04-8.35-0.33-2.12 0.62-3.27 2.71-3.99 4.32-0.8 1.52-1.05 3.17-0.33 5.26 0.72 2.02 2.27 4.39 4.65 7.13-1.12 1.01-2.27 2.05-3.42 3.1z" stroke="#000" stroke-miterlimit="10" stroke-width=".036" fill="#fff"/>
    <path id="path63" d="m175.59 394.76c0.29 3.28-0.18 5.65-1.55 7.13-1.36 1.41-3.52 1.91-6.48 1.51-1.76 1.12-2.48 1.95-2.16 2.49 0.33 0.5 1.98 1.08 4 0.61 1.87-0.72 6.34-2.06 7.42-4 0.97-1.94 0.61-4.57-1.23-7.74z" stroke="#000" stroke-miterlimit="10" stroke-width=".036" fill="#fff"/>
    <path id="path65" d="m164.47 401.57c-1.37-0.11-3.78-2.24-4.32-4.04-0.61-1.9-0.22-6.08 0.61-7.09 0.68-1.01 2.99 0 3.71 0.94 0.57 0.82-0.29 2.81 0.32 3.99 0.58 1.01 3.42 1.8 3.39 2.81-0.11 1.05-2.45 3.42-3.71 3.39z" stroke="#000" stroke-miterlimit="10" stroke-width=".036" fill="#fff"/>
    <path id="path67" d="m186.21 377.16c-1.47-1.01-2.63-2.56-3.6-4.79-0.97-2.38-2.45-5.9-2.09-8.64 0.36-2.81 1.8-6.26 3.89-7.74 1.91-1.44 4.83-1.51 7.78-1.19 2.91 0.18 7.05 0.97 9.5 2.38 2.23 1.33 3.67 3.16 4.18 5.65l-2.38-0.29c1.01 0.69 1.01 0.69 0 0-1.15-0.83-3.89-3.38-6.26-4.18-2.52-0.82-5.98-0.97-8.03-0.28-2.09 0.61-3.2 2.55-3.89 4.17-0.83 1.41-0.97 3.14-0.29 5.04 0.72 1.95 2.16 4.29 4.47 6.88-1.08 0.97-2.16 1.98-3.28 2.99z" stroke="#000" stroke-miterlimit="10" stroke-width=".036" fill="#fff"/>
    <path id="path69" d="m202.92 365.24c0.28 3.17-0.22 5.4-1.52 6.84-1.29 1.33-3.38 1.87-6.26 1.48-1.73 1.11-2.38 1.87-2.09 2.41 0.29 0.43 1.91 1.08 3.89 0.58 1.87-0.65 6.01-1.98 7.16-3.86 0.98-1.91 0.58-4.39-1.18-7.45z" stroke="#000" stroke-miterlimit="10" stroke-width=".036" fill="#fff"/>
    <path id="path71" d="m192.15 371.8c-1.37-0.19-3.6-2.13-4.17-3.89-0.58-1.91-0.15-5.76 0.61-6.84 0.68-0.98 2.84-0.04 3.56 0.86 0.58 0.79-0.29 2.73 0.33 3.89 0.57 0.97 3.24 1.73 3.27 2.7-0.07 1.08-2.37 3.24-3.6 3.28z" stroke="#000" stroke-miterlimit="10" stroke-width=".036" fill="#fff"/>
    <path id="path73" d="m214.33 351.2c-1.55-1.01-2.56-2.55-3.57-4.79-0.97-2.37-2.44-5.9-2.08-8.64 0.28-2.8 1.8-6.26 3.85-7.74 1.98-1.44 4.71-1.51 7.77-1.19 2.88 0.18 7.17 0.98 9.54 2.38 2.24 1.33 3.68 3.17 4.18 5.65l-2.41-0.29c1.01 0.69 1.01 0.69 0 0-1.15-0.82-3.89-3.38-6.27-4.17-2.52-0.83-5.97-0.97-8.02-0.29-2.09 0.61-3.21 2.56-3.89 4.18-0.83 1.4-0.97 3.13-0.29 5.04 0.72 1.94 2.16 4.28 4.46 6.87-1.08 0.98-2.16 1.98-3.27 2.99z" stroke="#000" stroke-miterlimit="10" stroke-width=".036" fill="#fff"/>
    <path id="path75" d="m231.03 339.25c0.29 3.13-0.21 5.47-1.51 6.88-1.3 1.33-3.38 1.87-6.26 1.47-1.7 1.12-2.38 1.88-2.06 2.41 0.29 0.44 1.95 1.08 3.86 0.58 1.87-0.65 6.01-1.98 7.16-3.85 0.97-1.91 0.58-4.36-1.19-7.49z" stroke="#000" stroke-miterlimit="10" stroke-width=".036" fill="#fff"/>
    <path id="path77" d="m220.3 345.84c-1.36-0.18-3.6-2.12-4.17-3.89-0.65-1.98-0.18-5.8 0.57-6.88 0.65-1 2.92 0.04 3.6 0.9 0.62 0.79-0.36 2.74 0.29 3.89 0.58 0.97 3.24 1.73 3.28 2.7-0.15 1.08-2.31 3.24-3.57 3.28z" stroke="#000" stroke-miterlimit="10" stroke-width=".036" fill="#fff"/>
    <path id="path79" d="m237.48 325.86c-1.41-0.97-2.49-2.38-3.39-4.5-0.93-2.2-2.23-5.55-1.94-8.1 0.29-2.63 1.69-5.91 3.63-7.31 1.88-1.4 4.4-1.4 7.28-1.12 2.73 0.18 6.69 0.94 8.96 2.27 2.16 1.26 3.42 3.03 3.92 5.29l-2.23-0.25c0.94 0.61 0.94 0.61 0 0-1.04-0.79-3.6-3.17-5.87-3.92-2.26-0.76-5.76-0.9-7.56-0.29-1.94 0.54-3.02 2.45-3.67 3.92-0.79 1.41-0.83 2.81-0.25 4.75 0.61 1.91 2.05 3.97 4.18 6.45-1.01 0.94-2.02 1.87-3.06 2.81z" stroke="#000" stroke-miterlimit="10" stroke-width=".036" fill="#fff"/>
    <path id="path81" d="m253.14 314.66c0.21 2.95-0.11 5.15-1.37 6.44-1.3 1.26-3.13 1.77-5.91 1.37-1.58 1.01-2.23 1.77-1.94 2.27 0.18 0.36 1.91 1.04 3.64 0.54 1.72-0.58 5.72-1.84 6.73-3.63 0.93-1.77 0.5-4.14-1.15-6.99z" stroke="#000" stroke-miterlimit="10" stroke-width=".036" fill="#fff"/>
    <path id="path83" d="m243.06 320.82c-1.37-0.22-3.28-1.95-3.93-3.64-0.57-1.73-0.11-5.54 0.58-6.44 0.65-1.05 2.59 0.1 3.35 0.83 0.46 0.75-0.22 2.52 0.28 3.63 0.54 1.05 3.06 1.52 3.1 2.52-0.11 0.9-2.16 3.13-3.38 3.1z" stroke="#000" stroke-miterlimit="10" stroke-width=".036" fill="#fff"/>
    <path id="path85" d="m25.184 576.74c0.648-0.39 0.36-1.36-0.468-3.06-0.972-1.84-2.916-4.75-5.004-7.2-2.196-2.45-4.608-4.86-7.632-7.23l3.492-2.6c3.312 2.92 5.796 5.51 7.848 7.63 1.872 2.13 2.988 3.61 3.924 5.26 0.9 1.66 2.088 3.31 1.764 4.57-0.396 1.12-1.656 2.13-3.924 2.63z" stroke="#000" stroke-miterlimit="10" stroke-width=".036" fill="#fff"/>
    <path id="path87" d="m13.375 555.75c-1.692-1.18-3.348-2.16-4.572-3.06-1.26-1.01-2.16-2.37-3.276-2.16-1.296 0.22-2.484 1.33-3.96 3.49 2.412 0.9 4.212 1.66 5.688 2.42 1.404 0.68 2.304 1.33 2.844 1.94 1.081-0.86 2.161-1.73 3.276-2.63z" stroke="#000" stroke-miterlimit="10" stroke-width=".036" fill="#fff"/>
    <path id="path89" d="m136.75 393.18c-2.63-1.33-3.75-2.38-3.49-3.28 0.25-0.97 1.87-1.65 5-2.19l6.12-5.01c-1.48-1.15-1.91-2.12-1.3-3.06 0.62-1 2.24-1.83 5.01-2.63l13.75-13.75c-1.44-2.44-1.87-4.1-1.3-4.82 0.54-0.83 2.02-0.76 4.58 0.22l7.66-7.85c-0.79-1.51-0.86-2.49-0.21-3.06 0.65-0.58 1.91-0.65 3.92-0.22l20.52-18.76c-1.22-1.36-1.51-2.44-0.86-3.38 0.65-1.01 3.42-1.69 4.57-2.2 1.01-0.5 1.8-0.72 1.98-0.64l28.15-29.06c3.1-1.62 4.03-1.26 2.41 1.08s-5.5 6.59-11.8 12.89c4.89 2.45 7.23 4.25 7.41 5.26-0.07 0.97-5.76 0.11-6.77 0.86-0.97 0.65 2.34 3.57 1.34 3.49-1.08-0.14-3.64-1.47-7.67-4.14l-11.77 11.77c1.8 1.19 2.98 2.24 3.7 3.28 0.65 0.97 0.47 2.2 0.44 2.84-0.18 0.54 0.1 0.98-1.08 0.9-1.19-0.14-3.28-0.61-6.12-1.54l-21.17 19.22 4.35 4.36c-0.9 0.18-1.51 0.68-1.98 1.11-0.46 0.43-0.75 1.01-0.86 1.73l-5.22-3.49-8.32 8.53c1.84 2.48 3.17 4.61 4.14 6.52 0.9 1.8 1.16 3.2 1.34 4.6 0.07 1.41-0.22 2.85-0.87 3.5-0.93 0.36-2.63-0.9-3.53-0.44-0.9 0.51-0.68 3.39-1.29 3.5-0.72 0.03-2.7-1.98-2.63-3.28 0.04-1.4 3.1-2.81 3.06-4.61-0.11-1.83-1.22-3.89-3.49-6.3l-15.27 13.97 5.01 4.79c-0.9 0.47-1.51 1.01-1.98 1.76-0.47 0.69-0.76 1.55-0.87 2.59l-4.35-4.35c-2.88 2.37-4.79 4.25-6.12 5.9-1.33 1.66-0.87 2.99-1.51 3.71-0.72 0.51-1.55 0.4-2.63-0.32z" stroke="#000" stroke-miterlimit="10" stroke-width=".036" fill="#fff"/>
    <path id="path91" d="m191.76 344.36c2.44 2.88 4.39 4.54 6.12 4.82 1.65 0.26 2.91-0.71 3.92-3.05l-6.08-6.56c-1.3 1.59-2.63 3.17-3.96 4.79z" stroke="#000" stroke-miterlimit="10" stroke-width=".036" fill="#fff"/>
    <path id="path93" d="m177.79 366.43c0.07 2.38 0.61 4.75 1.76 6.98 1.08 2.24 2.63 4.47 4.79 6.56l-5.9 4.78-9.83-3.06c-0.07-1.76 0.25-2.84 1.11-3.24 0.87-0.5 2.92 2.31 3.93 0.65 0.79-1.8 0.83-8.57 1.51-10.73 0.68-2.12 1.51-2.77 2.63-1.94z" stroke="#000" stroke-miterlimit="10" stroke-width=".036" fill="#fff"/>
    <path id="path95" d="m176.92 356.82l-4.57 4.82 1.3 4.79c0.5-1.84 1.08-3.38 1.73-4.79 0.64-1.48 1.26-2.52 1.98-3.53-0.15-0.43-0.29-0.86-0.44-1.29z" stroke="#000" stroke-miterlimit="10" stroke-width=".036" fill="#fff"/>
    <path id="path97" d="m161.19 372.12l-6.98 6.77 2.63 3.49c1.51-0.9 2.98-1.37 4.57-1.55 1.58-0.18 2.99 0.03 4.61 0.65-2.2-1.12-3.53-2.38-4.4-3.93-0.82-1.62-0.97-3.38-0.43-5.43z" stroke="#000" stroke-miterlimit="10" stroke-width=".036" fill="#fff"/>
    <path id="path99" d="m147.22 387.6c-3.06 1.37-4.6 2.77-4.78 4.6-0.18 1.77 3.2 4 3.92 5.87 0.65 1.8 0.72 3.21 0.22 4.61l3.49 5.44 2.63-3.06c-2.09-3.03-3.46-5.51-3.96-7.85-0.51-2.41 0.64-4.43 0.68-5.9-0.14-1.52-0.54-2.45-1.33-2.81l-0.87-0.9z" stroke="#000" stroke-miterlimit="10" stroke-width=".036" fill="#fff"/>
    <path id="path101" d="m180.85 389.8l10.04-9.4 1.3 4.82-10.26 10.91-1.08-6.33z" stroke="#000" stroke-miterlimit="10" stroke-width=".036" fill="#fff"/>
    <path id="path103" d="m215.34 354.62l-5.44 6.55 0.43 5.05 7.85-8.75-2.84-2.85z" stroke="#000" stroke-miterlimit="10" stroke-width=".036" fill="#fff"/>
    <path id="path105" d="m241.11 329.31l-4.79 5.44-0.43 1.76 6.09-3.92-0.87-3.28z" stroke="#000" stroke-miterlimit="10" stroke-width=".036" fill="#fff"/>
    <path id="path107" d="m217.32 315.56l-8.07 8.71 4.36 2.85c2.3-0.32 4.39-0.47 6.12-0.43 1.76 0.03 3.17 0.25 4.35 0.64l5.26-5.43c-2.84-0.15-5-0.22-6.34-0.22-1.36-0.18-1-0.36-1.98 0-1.08 0.4-2.48 1.19-4.35 2.38-1.8 0.14-2.34-0.22-1.77-1.08 0.54-0.94 2.34-2.34 5.26-4.36-0.94-1.01-1.87-2.02-2.84-3.06z" stroke="#000" stroke-miterlimit="10" stroke-width=".036" fill="#fff"/>
    <path id="path109" d="m224.3 356.1c1.8-1.98 3.42-3.53 5.26-4.79 1.76-1.26 3.96-1.3 5.22-2.63 1.11-1.4 0.1-3.24 1.98-5.65 1.76-2.55 4.32-3.71 8.92-8.75 4.54-5.07 10.66-11.98 18.36-21.17 0 0.37 0.51 0.65 1.52 0.87 1 0.14 2.37 0.21 4.39 0.21l-42.59 44.11c-1.01-0.73-2.02-1.45-3.06-2.2z" stroke="#000" stroke-miterlimit="10" stroke-width=".036" fill="#fff"/>
    <path id="path111" d="m264.76 310.77c-1.36-0.9-2.48-2.34-3.34-4.46-1.01-2.13-2.27-5.62-1.98-8.14 0.28-2.59 1.69-5.94 3.63-7.27 1.84-1.4 4.47-1.4 7.31-1.11 2.74 0.14 6.7 0.93 8.96 2.23 2.13 1.26 3.42 2.98 3.89 5.32l-2.23-0.28c0.94 0.61 0.94 0.61 0 0-1.04-0.79-3.6-3.17-5.87-3.92-2.27-0.76-5.76-0.9-7.56-0.29-1.94 0.54-3.02 2.45-3.63 3.92-0.76 1.4-0.9 2.81-0.29 4.75 0.61 1.91 2.01 3.96 4.21 6.45-1.01 0.93-2.05 1.87-3.1 2.8z" stroke="#000" stroke-miterlimit="10" stroke-width=".036" fill="#fff"/>
    <path id="path113" d="m280.46 299.58c0.25 2.95-0.22 5.15-1.4 6.44-1.3 1.3-3.14 1.76-5.91 1.4-1.58 1.05-2.23 1.7-1.94 2.24 0.18 0.32 1.91 1.11 3.63 0.57 1.73-0.65 5.73-1.87 6.74-3.67 0.9-1.87 0.57-4.07-1.12-6.98z" stroke="#000" stroke-miterlimit="10" stroke-width=".036" fill="#fff"/>
    <path id="path115" d="m270.38 305.73c-1.37-0.21-3.28-1.94-3.92-3.63-0.65-1.73-0.15-5.55 0.54-6.45 0.72-1.04 2.62 0.11 3.38 0.83 0.5 0.76-0.29 2.49 0.25 3.67 0.54 1.05 3.06 1.52 3.1 2.52-0.18 0.94-2.09 3.06-3.35 3.06z" stroke="#000" stroke-miterlimit="10" stroke-width=".036" fill="#fff"/>
    <path id="path117" d="m283.38 286.11c-1.34-0.86-2.42-2.3-3.24-4.32-1.01-2.12-2.09-5.32-1.88-7.81 0.22-2.55 1.66-5.58 3.5-6.98 1.76-1.41 4.28-1.3 7.02-1.08 2.59 0.14 6.48 0.86 8.6 2.16 2.05 1.19 3.31 2.84 3.78 5.11l-2.16-0.29c0.9 0.61 0.9 0.61 0 0-1.04-0.68-3.53-3.09-5.65-3.74-2.16-0.65-5.51-0.97-7.27-0.29-1.84 0.65-2.96 2.23-3.49 3.78-0.76 1.3-0.9 2.77-0.29 4.57 0.61 1.73 1.9 3.89 4.03 6.19-0.97 0.9-1.95 1.8-2.95 2.7z" stroke="#000" stroke-miterlimit="10" stroke-width=".036" fill="#fff"/>
    <path id="path119" d="m298.46 275.35c0.25 2.81-0.14 4.97-1.33 6.19-1.19 1.19-3.03 1.73-5.65 1.33-1.52 0.98-2.2 1.7-1.91 2.16 0.29 0.44 1.73 0.94 3.49 0.54 1.58-0.54 5.54-1.8 6.48-3.49 0.86-1.65 0.5-4.03-1.08-6.73z" stroke="#000" stroke-miterlimit="10" stroke-width=".036" fill="#fff"/>
    <path id="path121" d="m288.78 281.25c-1.3-0.14-3.21-1.9-3.78-3.49-0.62-1.76-0.11-5.22 0.54-6.19 0.57-0.9 2.62-0.04 3.24 0.79 0.5 0.72-0.29 2.45 0.25 3.53 0.54 1.01 2.91 1.44 2.95 2.41-0.11 0.9-2.05 2.99-3.2 2.95z" stroke="#000" stroke-miterlimit="10" stroke-width=".036" fill="#fff"/>
    <path id="path123" d="m298.24 265.38c-1.33-0.87-2.41-2.31-3.24-4.32-1-2.13-2.08-5.33-1.87-7.81 0.33-2.56 1.62-5.58 3.49-6.99 1.84-1.4 4.22-1.29 6.99-1.08 2.59 0.15 6.48 0.87 8.6 2.16 2.05 1.19 3.31 2.85 3.78 5.11l-2.16-0.28c0.9 0.61 0.9 0.61 0 0-1.04-0.69-3.53-3.1-5.65-3.75-2.16-0.65-5.51-0.97-7.27-0.29-1.84 0.65-2.95 2.24-3.49 3.78-0.69 1.3-0.9 2.78-0.26 4.58 0.62 1.72 1.91 3.88 4.04 6.19-0.98 0.9-1.95 1.8-2.96 2.7z" stroke="#000" stroke-miterlimit="10" stroke-width=".036" fill="#fff"/>
    <path id="path125" d="m313.29 254.61c0.25 2.81-0.14 4.97-1.33 6.2-1.19 1.18-3.02 1.72-5.65 1.33-1.55 0.97-2.13 1.69-1.87 2.16 0.28 0.36 1.72 1.04 3.49 0.54 1.65-0.61 5.47-1.84 6.44-3.53 0.87-1.73 0.51-3.96-1.08-6.7z" stroke="#000" stroke-miterlimit="10" stroke-width=".036" fill="#fff"/>
    <path id="path127" d="m303.61 260.52c-1.3-0.15-3.21-1.91-3.78-3.49-0.61-1.77-0.11-5.22 0.54-6.2 0.57-0.9 2.63-0.03 3.24 0.8 0.5 0.75-0.33 2.37 0.29 3.49 0.54 0.97 2.91 1.51 2.95 2.45-0.07 0.9-2.13 2.98-3.24 2.95z" stroke="#000" stroke-miterlimit="10" stroke-width=".036" fill="#fff"/>
    <path id="path129" d="m314.84 247.23c-1.33-0.86-2.41-2.3-3.24-4.32-1.01-2.08-2.09-5.32-1.87-7.77 0.32-2.52 1.62-5.69 3.49-7.02 1.84-1.41 4.21-1.3 6.98-1.08 2.6 0.14 6.48 0.86 8.61 2.16 2.05 1.19 3.31 2.84 3.78 5.11l-2.16-0.25c0.9 0.61 0.9 0.61 0 0-1.05-0.65-3.53-3.21-5.65-3.78-2.16-0.69-5.51-0.9-7.28-0.25-1.83 0.54-2.95 2.3-3.49 3.74-0.68 1.3-0.9 2.77-0.25 4.57 0.61 1.73 1.91 3.89 4.03 6.19-0.97 0.9-1.94 1.8-2.95 2.7z" stroke="#000" stroke-miterlimit="10" stroke-width=".036" fill="#fff"/>
    <path id="path131" d="m329.89 236.47c0.25 2.81-0.15 4.97-1.33 6.19-1.19 1.19-3.03 1.73-5.66 1.33-1.54 0.98-2.12 1.7-1.87 2.16 0.29 0.44 1.73 0.94 3.49 0.54 1.66-0.54 5.48-1.8 6.45-3.49 0.86-1.65 0.5-4.03-1.08-6.73z" stroke="#000" stroke-miterlimit="10" stroke-width=".036" fill="#fff"/>
    <path id="path133" d="m320.2 242.41c-1.29-0.29-3.2-1.84-3.78-3.53-0.61-1.76-0.1-5.22 0.54-6.19 0.58-0.94 2.63 0.04 3.24 0.83 0.51 0.75-0.32 2.37 0.29 3.49 0.54 1.01 2.92 1.44 2.95 2.41-0.07 0.94-2.12 2.95-3.24 2.99z" stroke="#000" stroke-miterlimit="10" stroke-width=".036" fill="#fff"/>
    <path id="path135" d="m332.23 226.71c-0.76-0.43-1.37-1.36-1.84-2.41-0.54-1.22-1.26-3.06-1.04-4.39 0.14-1.55 0.93-3.13 1.98-3.92 0.97-0.83 2.37-0.76 3.92-0.62 1.44 0.04 3.57 0.44 4.83 1.19 1.11 0.61 1.87 1.62 2.12 2.88l-1.22-0.14c0.5 0.36 0.5 0.36 0 0-0.65-0.47-1.98-1.69-3.17-2.13-1.33-0.39-3.06-0.54-4.07-0.14-1.04 0.32-1.66 1.22-1.98 2.12-0.4 0.72-0.54 1.48-0.14 2.56 0.36 1.04 1.11 2.16 2.26 3.49-0.54 0.51-1.08 1.01-1.65 1.51z" stroke="#000" stroke-miterlimit="10" stroke-width=".036" fill="#fff"/>
    <path id="path137" d="m340.69 220.67c0.11 1.62-0.15 2.73-0.76 3.49-0.68 0.65-1.69 0.9-3.17 0.75-0.86 0.54-1.22 0.94-1.08 1.19 0.11 0.25 1.05 0.51 1.98 0.33 1.05-0.29 2.96-1.08 3.64-1.98 0.43-1.08 0.32-2.16-0.61-3.78z" stroke="#000" stroke-miterlimit="10" stroke-width=".036" fill="#fff"/>
    <path id="path139" d="m335.25 223.98c-0.72-0.18-1.8-1.01-2.12-1.95-0.29-0.97-0.15-3.06 0.29-3.49 0.32-0.57 1.4 0.04 1.83 0.47 0.29 0.36-0.18 1.33 0.15 1.94 0.36 0.51 1.51 0.83 1.65 1.37-0.14 0.47-1.11 1.62-1.8 1.66z" stroke="#000" stroke-miterlimit="10" stroke-width=".036" fill="#fff"/>
    <path id="path141" d="m355.38 200.29c-0.76-0.43-1.37-1.37-1.84-2.41-0.54-1.23-1.26-3.06-1.04-4.39 0.14-1.55 0.93-3.14 1.98-3.93 0.97-0.83 2.37-0.75 3.92-0.61 1.44 0.11 3.56 0.47 4.82 1.22 1.12 0.62 1.88 1.66 2.13 2.85l-1.23-0.15c0.51 0.36 0.51 0.36 0 0-0.64-0.46-1.98-1.69-3.17-2.12-1.33-0.4-3.05-0.54-4.06-0.14-1.05 0.32-1.66 1.22-1.98 2.12-0.4 0.72-0.54 1.48-0.15 2.56 0.36 1.04 1.12 2.16 2.27 3.49-0.54 0.5-1.08 1.01-1.65 1.51z" stroke="#000" stroke-miterlimit="10" stroke-width=".036" fill="#fff"/>
    <path id="path143" d="m363.84 194.24c0.1 1.62-0.15 2.74-0.76 3.49-0.68 0.65-1.69 0.9-3.17 0.76-0.86 0.54-1.22 0.94-1.08 1.19 0.11 0.25 1.05 0.5 1.98 0.32 1.05-0.29 2.95-1.08 3.64-1.98 0.43-1.08 0.32-2.16-0.61-3.78z" stroke="#000" stroke-miterlimit="10" stroke-width=".036" fill="#fff"/>
    <path id="path145" d="m358.4 197.55c-0.72-0.18-1.8-1-2.12-1.94-0.29-0.97-0.15-3.06 0.28-3.49 0.33-0.58 1.41 0.03 1.84 0.47 0.29 0.36-0.18 1.33 0.14 1.94 0.36 0.5 1.52 0.83 1.66 1.37-0.14 0.47-1.12 1.62-1.8 1.65z" stroke="#000" stroke-miterlimit="10" stroke-width=".036" fill="#fff"/>
    <path id="path147" d="m270.81 282.05c6.48 6.22 11.59 11.12 15.73 14.83 4.07 3.67 5.26 5.94 8.72 7.23 3.34 1.12 8.46 0.94 11.59 0 3.06-1.01 7.05-3.92 6.98-5.69-0.29-1.98-4.86-4.82-7.88-5.03-3.1 0-7.42 3.77-10.05 4.39-2.73 0.47-2.19 0.9-5.86-1.77-3.71-2.91-8.93-7.74-15.95-15.04-1.08 0.36-2.16 0.72-3.28 1.08z" stroke="#000" stroke-miterlimit="10" stroke-width=".036" fill="#fff"/>
    <path id="path149" d="m303.79 272.43c0.18 0.8 0.32 1.8 0.43 2.63 0.11 0.79 0.18 1.8 0.22 2.63 18.54-19.66 36.5-38.7 55-58.1 18.44-19.41 36.44-38.2 54.83-57.35 0.4-2.56 0.54-4.43 0.43-5.47-0.1-1.16-0.46-1.52-1.08-1.08l-78.4 83.19c-1.01 3.24-2.34 5.83-4.14 7.63-1.77 1.84-4 2.88-6.56 3.28l-6.55 6.77c0.33 1.87-0.21 3.74-1.76 5.47-1.51 1.76-4.03 3.38-7.42 5-1.65 1.8-3.31 3.6-5 5.4z" stroke="#000" stroke-miterlimit="10" stroke-width=".036" fill="#fff"/>
    <path id="path151" d="m401.38 145.14c4.04-0.15 7.02 0.57 8.97 1.76 1.91 1.15 2.77 3.17 2.59 5.65l-68.11 69.45c0.61-2.74 0.18-4.9-1.3-6.34-1.58-1.55-4.21-2.41-7.88-2.59l12.89-14c1.69 1.72 2.88 3.06 3.7 4.39 0.69 1.33-0.32 3.09 0.87 3.06 1.08-0.18 3.09-1.62 5.9-4.18 1.51-0.39 3.03-1.04 4.39-1.94 1.41-1.05 3.32-2.05 3.93-3.71 0.5-1.69 0.29-4.43-0.65-6.12-1.08-1.76-2.81-3.1-5.47-4.14 13.39-13.75 26.78-27.5 40.17-41.29z" stroke="#000" stroke-miterlimit="10" stroke-width=".036" fill="#fff"/>
    <path id="path153" d="m399.19 143.01c-0.36-2.16-0.04-3.56 1.11-4.35 1.08-0.79 3.5-0.4 5.44-0.22 1.84 0.11 3.6-0.57 5.69 0.87 2.01 1.44 4.25 3.78 6.55 7.41l-2.63 4.18c-0.83-2.31-1.87-3.96-3.27-5.26-1.37-1.37-2.99-1.94-5.01-2.41-2.16-0.47-4.79-0.54-7.88-0.22z" stroke="#000" stroke-miterlimit="10" stroke-width=".036" fill="#fff"/>
    <path id="path155" d="m417.12 153.74c0.28 0.65 0.43 1.59 0.43 2.81s-0.15 2.59-0.43 4.39c1.98-0.47 3.24-1.08 3.92-1.98 0.5-0.97 0.18-1.91 0-3.49-0.14-1.69-0.43-3.6-0.86-6.12-1.01 1.44-2.02 2.92-3.06 4.39z" stroke="#000" stroke-miterlimit="10" stroke-width=".036" fill="#fff"/>
    <path id="path157" d="m425.61 114.65c-0.36-2.16-0.03-3.57 1.12-4.36 1.08-0.79 3.49-0.4 5.43-0.22 1.84 0.11 3.6-0.57 5.69 0.87 2.02 1.44 4.25 3.78 6.55 7.41l-2.62 4.14c-0.83-2.23-1.88-3.92-3.28-5.22-1.37-1.36-2.99-1.94-5-2.41-2.16-0.47-4.79-0.54-7.89-0.21z" stroke="#000" stroke-miterlimit="10" stroke-width=".036" fill="#fff"/>
    <path id="path159" d="m443.54 125.34c0.29 0.72 0.43 1.62 0.43 2.84 0 1.23-0.14 2.63-0.43 4.36 1.98-0.4 3.24-1.05 3.92-1.95 0.51-0.97 0.18-1.9 0-3.49-0.14-1.69-0.43-3.6-0.86-6.12-1.01 1.44-2.02 2.88-3.06 4.36z" stroke="#000" stroke-miterlimit="10" stroke-width=".036" fill="#fff"/>
    <path id="path161" d="m408.37 136.35l18.79-19.62c3.35-0.82 6.16-0.61 8.28 0.65 2.16 1.26 3.64 3.42 4.57 6.77l-19.4 20.74c-2.31-3.32-4.54-5.55-6.55-6.99-2.02-1.44-3.96-1.91-5.69-1.55z" stroke="#000" stroke-miterlimit="10" stroke-width=".036" fill="#fff"/>
    <path id="path163" d="m421.9 147.95l19.01-21.17c0.29 1.01 0.43 2.23 0.43 3.27-0.07 1.01-0.28 2.24-0.64 3.28l-17.93 19.87-0.87-5.25z" stroke="#000" stroke-miterlimit="10" stroke-width=".036" fill="#fff"/>
    <path id="path165" d="m436.3 108.63l51.12-52.844c1.12 1.08 3.03 1.764 5.87 2.196 2.81 0.36 6.41 0.36 10.95 0l-58.32 59.398c-1.37-2.48-2.78-4.5-4.36-5.9-1.66-1.51-3.31-2.41-5.26-2.85z" stroke="#000" stroke-miterlimit="10" stroke-width=".036" fill="#fff"/>
    <path id="path167" d="m447.68 119.11l57.64-59.616c2.37-0.756 5.22-2.628 8.53-5.616 3.31-3.132 8.64-9.216 11.12-12.42 2.31-3.204 3.42-5.508 3.06-6.768l23.15-23.148c0.32 1.188 0.4 2.304 0.22 3.492-0.26 1.116-0.65 2.16-1.34 3.276l-93.67 97.81-7.2 7.27c-0.5-1.4-1.01-2.84-1.51-4.28z" stroke="#000" stroke-miterlimit="10" stroke-width=".036" fill="#fff"/>
    <path id="path169" d="m536.53 4.774c1.62-1.116 3.35-1.512 5.04-1.332 1.73 0.18 3.89 1.116 5.22 2.412 1.26 1.188 1.94 2.736 2.19 4.788l-21.6 21.42c-1.01-3.24-1.9-5.616-2.84-7.416s-1.77-2.844-2.63-3.276c4.86-5.508 9.72-11.052 14.62-16.596z" stroke="#000" stroke-miterlimit="10" stroke-width=".036" fill="#fff"/>
    <path id="path171" d="m485.66 49.306c1.98-2.844 8.64-9.54 13.32-13.968 4.57-4.536 10.01-11.196 13.97-12.888 3.92-1.8 7.05 0.252 9.39 2.412 2.24 2.124 5.55 5.616 3.71 10.476-2.05 4.86-10.4 14.904-15.48 18.324-5.22 3.24-11.09 1.764-15.08 1.548-4-0.396-6.88-2.016-8.5-3.06-1.69-1.08-3.38-0.036-1.33-2.844z" stroke="#000" stroke-miterlimit="10" stroke-width=".036" fill="#fff"/>
    <path id="path173" stroke="#000" stroke-width=".036" stroke-miterlimit="10" d="m503.34 37.75c0.97 1.332 6.08 2.988 8.53 2.592 2.37-0.576 5.61-3.816 5.69-5.437-0.15-1.764-3.71-3.924-5.69-4.392-2.02-0.504-4.75 0.504-6.12 1.764-1.51 1.225-3.42 4.069-2.41 5.473z"/>
    <path id="path175" d="m537.43 1.066c1.04-0.288 2.37-0.288 4.14 0 1.73 0.288 4.68 0.864 6.33 1.728 1.66 0.828 2.7 2.268 3.28 3.492 0.4 1.08 0.18 2.376-0.65 3.492-0.65-2.304-1.62-3.996-3.06-5.22-1.47-1.332-3.67-2.016-5.47-2.196-1.91-0.18-3.6 0.252-5.47 1.296 0.29-0.864 0.57-1.728 0.9-2.592z" stroke="#000" stroke-miterlimit="10" stroke-width=".036" fill="#fff"/>
    <path id="path177" d="m236.61 288.6c5.04-5.44 10.08-10.55 14.98-15.48 4.93-4.9 9.72-9.61 14.51-14.01-0.51-1.26-0.54-2.37 0.28-3.06 0.76-0.82 2.09-1.22 4.14-1.47l9.58-11.05c-0.68-0.98-0.68-1.91 0-2.42 0.61-0.61 1.91-0.97 3.89-1.08l14.94-14.61c-0.72-1.37-0.72-2.49 0-3.06 0.72-0.61 2.05-0.97 4.14-0.79 2.16-3.24 3.85-4.86 4.93-5.26 1.12-0.36 2.02 1.91 1.58 3.2-0.54 1.19-2.08 2.56-4.64 4.11l4.25 4.53c-0.22-0.07-0.58 0.11-0.94 0.94-0.43 0.65-0.86 1.94-1.44 3.49l-5.22-5.22-14.94 14.15 6.55 5.08c-0.43 0.32-0.93 0.9-1.22 1.87-0.43 0.93-0.65 2.12-0.94 3.71l-8.24-6.27-9.22 10.01 7.2 7.49c-0.36 0.29-0.75 0.72-1.18 1.58-0.51 0.83-0.9 1.8-1.48 3.21l-4.68-4.68-17.21 18.79 5.22 4.79c-1.08 0.36-1.83 0.9-2.41 1.62-0.54 0.72-0.9 1.51-0.94 2.52l-5.18-4.94-8.57 8.14c-0.72 1.55-1.51 2.38-2.37 2.88-0.94 0.4-2.7 0.22-2.96-0.39-0.32-0.76-1.08-1.05 1.08-3.5 2.09-2.44 5.87-6.08 11.49-11.05l17.71-18.54-1.58-1.87c-11.74 12.82-20.02 21.2-25.24 25.74-5.22 4.43-7.13 4.68-5.87 0.9z" stroke="#000" stroke-miterlimit="10" stroke-width=".036" fill="#fff"/>
    <path id="path179" d="m252.09 290.76l-9.32 10.55c4.07-0.33 7.31 0.07 9.86 1.19 2.45 1.15 4.36 2.87 5.33 5.47-1.12-3.03-1.87-5.51-2.12-7.85-0.33-2.34-0.15-4.25 0.39-5.87-1.37-1.15-2.73-2.31-4.14-3.49z" stroke="#000" stroke-miterlimit="10" stroke-width=".036" fill="#fff"/>
    <path id="path181" d="m259.18 281.04l13.72-13.5 3.2 2.55c-1.26 2.49-1.87 4.4-2.12 5.87-0.29 1.48 0.07 2.23 0.79 2.67l-7.05 1.87 0.54 5.07c-1.16-0.18-2.24-0.18-3.1-0.14-0.94 0-1.73 0.18-2.38 0.4-1.18-1.59-2.37-3.17-3.6-4.79z" stroke="#000" stroke-miterlimit="10" stroke-width=".036" fill="#fff"/>
    <path id="path183" d="m276.93 254.9l5.87-5.87 7.6 6.02c-0.33 1.11-0.33 2.41-0.15 3.88 0.18 1.48 0.54 3.03 1.23 4.79-0.47-0.39-1.55-0.75-2.96-0.93-1.44-0.22-3.49-0.4-5.86-0.4-1.91-2.48-3.82-4.97-5.73-7.49z" stroke="#000" stroke-miterlimit="10" stroke-width=".036" fill="#fff"/>
    <path id="path185" d="m290 240.79l11.74-10.55 5.18 4.54c-0.32 0.97-0.5 2.12-0.4 3.45 0.04 1.34 0.22 2.7 0.69 4.4-2.16-0.33-4.25-0.51-6.41-0.26-2.16 0.11-4.39 0.65-6.55 1.34-1.41-0.98-2.81-1.95-4.25-2.92z" stroke="#000" stroke-miterlimit="10" stroke-width=".036" fill="#fff"/>
    <path id="path187" d="m322.15 207.63l7.59-7.48 5.62 6.26-6.7 6.26-6.51-5.04z" stroke="#000" stroke-miterlimit="10" stroke-width=".036" fill="#fff"/>
    <path id="path189" d="m332.95 197.73l9.61-8.92 5.07 4.93-9.75 9.21-4.93-5.22z" stroke="#000" stroke-miterlimit="10" stroke-width=".036" fill="#fff"/>
    <path id="path191" d="m358.04 175.74c2.09 1.76 3.46 2.91 4.25 3.45 0.61 0.44-0.69 0.26 0.14-0.39 0.83-0.72 2.38-2.05 4.79-3.85l-5.33-3.75c-1.26 1.51-2.55 3.03-3.85 4.54z" stroke="#000" stroke-miterlimit="10" stroke-width=".036" fill="#fff"/>
    <path id="path193" d="m368.3 165.08l3.6-3.89 4 3.6-5.08 5.08-3.06-3.46 0.54-1.33z" stroke="#000" stroke-miterlimit="10" stroke-width=".036" fill="#fff"/>
    <path id="path195" d="m315.99 205.73c5.11-4.5 10.41-9.47 16.02-15.05 5.65-5.62 11.34-11.7 17.46-18.4-0.57-1.69-0.57-2.81 0-3.35 0.47-0.54 1.55-0.72 3.1-0.14l7.85-7.45c-0.65-0.94-0.69-1.69-0.11-2.27 0.54-0.65 1.69-1.01 3.45-1.22 1.73-2.09 3.24-3.42 4.4-4.14 1.19-0.72 2.3-0.72 2.66-0.15 0.18 0.43-0.07 1.37-1.19 2.81-1.08 1.33-1.98 1.44-5.61 5.33-3.89 3.89-9.4 9.75-17.07 17.89l7.74 7.2c-1.29 0.07-2.05 0.47-2.66 0.79-0.5 0.43-0.86 0.79-0.68 1.48l-7.45-6.16c-5.12 4.25-10.02 8.97-15.23 14.15-5.23 5.22-10.34 10.69-15.74 16.81-1.58 0.29-2.16-0.07-1.58-1.47 0.5-1.44 2.05-3.53 4.64-6.66z" stroke="#000" stroke-miterlimit="10" stroke-width=".036" fill="#fff"/>
    <path id="path197" d="m327.87 216.31c-1.26-1.3-2.41-2.63-3.74-3.85-1.33-1.26-2.67-2.56-4.14-3.75l-1.73 1.88 8.96 8.92c-0.03-0.61 0-1 0.11-1.58s0.29-1.12 0.54-1.62z" stroke="#000" stroke-miterlimit="10" stroke-width=".036" fill="#fff"/>
    <path id="path199" d="m311.35 222.07l7.59-7.2 8.14 9.07c-0.68-0.21-2.2-0.39-4.54-0.14-2.37 0.14-5.58 0.54-9.61 1.19-0.5-0.98-1.04-1.95-1.58-2.92z" stroke="#000" stroke-miterlimit="10" stroke-width=".036" fill="#fff"/>
    <path id="path201" d="m350.3 179.59l5.47 4h5.19l1.33-1.73-7.35-6.3-4.64 4.03z" stroke="#000" stroke-miterlimit="10" stroke-width=".036" fill="#fff"/>
    <path id="path203" d="m355.48 172.25l13.22-12.96 2.12 1.22-13.32 13.21-2.02-1.47z" stroke="#000" stroke-miterlimit="10" stroke-width=".036" fill="#fff"/>
  </g>
  <metadata>
    <rdf:RDF>
      <cc:Work>
        <dc:format>image/svg+xml</dc:format>
        <dc:type rdf:resource="http://purl.org/dc/dcmitype/StillImage"/>
        <cc:license rdf:resource="http://creativecommons.org/licenses/publicdomain/"/>
        <dc:publisher>
          <cc:Agent rdf:about="http://openclipart.org/">
            <dc:title>Openclipart</dc:title>
          </cc:Agent>
        </dc:publisher>
        <dc:title>Flute</dc:title>
        <dc:date>2007-11-16T04:07:24</dc:date>
        <dc:description>clip art, clipart, colouring book, colouring book, flute, flute, image, instrument, instrument, media, music, music, png, public domain, silhouette, silhouette, svg, </dc:description>
        <dc:source>http://openclipart.org/detail/8614/flute-by-gerald_g-8614</dc:source>
        <dc:creator>
          <cc:Agent>
            <dc:title>Gerald_G</dc:title>
          </cc:Agent>
        </dc:creator>
        <dc:subject>
          <rdf:Bag>
            <rdf:li>clip art</rdf:li>
            <rdf:li>clipart</rdf:li>
            <rdf:li>colouring book</rdf:li>
            <rdf:li>flute</rdf:li>
            <rdf:li>image</rdf:li>
            <rdf:li>instrument</rdf:li>
            <rdf:li>media</rdf:li>
            <rdf:li>music</rdf:li>
            <rdf:li>png</rdf:li>
            <rdf:li>public domain</rdf:li>
            <rdf:li>silhouette</rdf:li>
            <rdf:li>svg</rdf:li>
          </rdf:Bag>
        </dc:subject>
      </cc:Work>
      <cc:License rdf:about="http://creativecommons.org/licenses/publicdomain/">
        <cc:permits rdf:resource="http://creativecommons.org/ns#Reproduction"/>
        <cc:permits rdf:resource="http://creativecommons.org/ns#Distribution"/>
        <cc:permits rdf:resource="http://creativecommons.org/ns#DerivativeWorks"/>
      </cc:License>
    </rdf:RDF>
  </metadata>
</svg>
