<?xml version="1.0" encoding="UTF-8" standalone="no"?>
<svg xmlns:rdf="http://www.w3.org/1999/02/22-rdf-syntax-ns#" xmlns="http://www.w3.org/2000/svg" height="1304.1" viewBox="0 0 1139.0625 1304.0625" width="1139.1" version="1.1" xmlns:cc="http://creativecommons.org/ns#" xmlns:dc="http://purl.org/dc/elements/1.1/">
<path d="m838.7 1303.4c-1.2961-1.296-15.579-34.427-15.58-36.139-0.0004-0.6374-1.3145-3.9012-2.9201-7.2528-3.3451-6.9822-9.2666-23.9-9.2666-26.474 0-0.9518-1.6622-6.8806-3.6938-13.175-6.1077-18.923-7.3148-34.299-4.6522-59.257 4.2754-40.076-1.7879-69.297-19.092-92.01-3.3948-4.456-5.3032-7.9519-5.7018-10.445-0.82414-5.1539-7.7397-5.6161-18.718-1.2509-1.4515 0.5772-3.8406 1.0494-5.3091 1.0494s-8.0855 1.6274-14.705 3.6164c-6.6191 1.9891-14.927 4.1186-18.463 4.7324-3.5354 0.6137-10.285 2.167-15 3.4519-4.7146 1.2847-14.267 3.1471-21.228 4.1384-13.663 1.9458-26.087 3.9522-37.969 6.1314-4.125 0.7567-8.6085 1.3738-9.9633 1.3713-3.5958-0.01-4.5997 1.7827-3.9808 7.0937 1.3599 11.669-16.814 31.115-33.95 36.327-2.5335 0.7706-6.534 2.27-8.8902 3.3321-9.4286 4.2504-21.45 6.1408-57.212 8.9963-25.58 2.0425-43.385 10.172-63.66 29.067-2.3203 2.1624-6.3281 5.4634-8.9062 7.3357-2.5781 1.8722-6.5576 5.3617-8.8432 7.7543-2.2856 2.3927-7.1372 6.3487-10.781 8.791-3.6441 2.4423-8.8344 5.9511-11.534 7.7973-5.367 3.6702-12.149 6.4672-22.279 9.1873-3.6094 0.9693-10.148 2.8654-14.531 4.2135-20.52 6.3119-51.599 9.5157-64.736 6.6732-8.7456-1.8925-23.283-4.3782-25.628-4.3821-1.05 0-10.2 8.3228-22.5 20.471-22.552 22.273-29.057 28.338-34.793 32.438-2.0625 1.4743-5.7202 4.5724-8.1281 6.8847-11.912 11.439-69.238-1.4551-94.391-21.23-1.7294-1.3596-5.0794-3.8315-7.4443-5.493s-6.4343-5.1015-9.0431-7.6443-8.0201-6.7427-12.025-9.333c-10.539-6.8164-16.391-11.13-22.391-16.506-2.9136-2.6104-6.9845-6.0445-9.0464-7.6313-15.025-11.563-25.231-31.525-24.412-47.747 0.36816-7.2905 2.0486-11.185 12.616-29.237 6.1391-10.487 6.2065-11.024 1.2857-10.237-7.1223 1.139-28.989 14.947-42.968 27.133-12.801 11.159-20.269 15.037-24.457 12.698-5.821-3.2511-1.2101-12.328 12.055-23.731 3.0351-2.6091 8.616-7.5446 12.402-10.968 28.385-25.665 43.683-29.77 69.581-18.669 7.1699 3.0734 7.4419 2.9417 19.748-9.5611 9.3399-9.4893 12.119-12.999 15.992-20.193 2.5781-4.789 6.1043-11.117 7.8358-14.062 1.7316-2.9448 4.6031-9.362 6.3811-14.26 5.551-15.293 15.483-32.602 26.538-46.25 5.4284-6.7015 11.979-14.797 14.557-17.989 2.5781-3.1924 9.6802-11.455 15.782-18.361 6.1022-6.906 14.094-16.564 17.759-21.463 3.6652-4.8984 9.262-12.07 12.437-15.938 8.2306-10.024 8.098-9.6268 6.4567-19.332-1.8602-11-3.8512-21.436-6.0594-31.761-3.4173-15.978-4.1123-26.25-2.4788-36.638 0.80432-5.1147 1.711-15.417 2.0148-22.893 0.646-15.896 2.8622-35.438 4.6247-40.781 1.4287-4.3312 2.9953-11.288 3.9055-17.344 0.85548-5.6919 5.5778-18.388 8.4872-22.818 3.4586-5.2662 2.5131-6.6151-4.116-5.8721-2.9568 0.33139-10.649 0.95647-17.095 1.3891-12.092 0.8116-21.322 2.7513-27.131 5.7018-1.8356 0.93224-6.7125 2.621-10.837 3.7528-10.573 2.9009-32.117 10.771-42.755 15.618-4.9528 2.2567-9.4344 4.1031-9.959 4.1031-2.0759 0-10.449 4.2649-16.897 8.6069-7.5152 5.0603-24.952 13.893-27.426 13.893-0.86812 0-4.2805 1.7597-7.5831 3.9105s-10.551 5.9156-16.109 8.3663c-5.5572 2.4507-11.463 5.3152-13.125 6.3657-6.8714 4.3442-10.232 5.7532-17.108 7.1735-7.1391 1.4746-12.853 3.1959-22.944 6.9116-8.8094 3.2438-17.272 2.0962-18.425-2.4985-0.75947-3.026 0.97572-4.3868 7.4859-5.8709 2.665-0.60754 8.9001-2.3289 13.856-3.8252 4.9556-1.4963 9.7-2.7206 10.543-2.7206 2.0122 0 12.373-3.534 16.54-5.642 1.8047-0.91278 12.56-6.0285 23.9-11.368 11.341-5.3397 27.054-13.566 34.919-18.28 7.8649-4.7141 17.149-9.7012 20.631-11.082 3.482-1.3813 9.706-3.9199 13.831-5.6413 18.706-7.8064 36.438-14.549 38.261-14.549 1.097 0 8.1246-2.0943 15.617-4.654 14.807-5.0588 28.146-7.528 40.741-7.5419 4.1631-0.005 12.18-0.79759 17.815-1.7623l10.245-1.7539 5.6922-6.1196c24.975-26.851 34.959-38.026 38.284-42.856 1.5976-2.3203 5.3002-7.1719 8.228-10.781 2.9278-3.6094 7.4364-9.7266 10.019-13.594 7.8424-11.742 16.505-18.75 23.177-18.75 5.3586 0 6.4806-1.9566 8.3554-14.571 0.91632-6.1654 2.2693-14.28 3.0067-18.033 2.8671-14.592 2.0928-16.567-6.7954-17.332-14.509-1.2485-29.851-16.976-37.947-38.902-1.0927-2.959-2.9416-7.0675-4.1087-9.13-14.082-24.885-14.047-67.714 0.0817-99.549 2.8672-6.4604 4.1559-16.181 4.1658-31.423 0.014-21.602 13.154-47.393 27.23-53.447 4.8988-2.1069 5.7558-4.5212 4.4788-12.618-1.7859-11.323-0.43174-40.451 2.3461-50.463 1.2875-4.6406 3.236-12.656 4.3299-17.812 1.0939-5.1562 2.6228-12.337 3.3976-15.957 0.77473-3.62 2.4897-8.8935 3.8111-11.719 1.3214-2.8253 3.8406-10.41 5.5983-16.856 2.105-7.7189 4.9161-15.079 8.2359-21.562 2.7721-5.4141 5.3544-10.898 5.7385-12.188 1.9001-6.3769 12.494-23.42 18.818-30.271 3.7066-4.0162 7.5926-9.0787 8.6356-11.25 13.34-27.77 14.941-29.999 31.138-43.328 3.0387-2.5007 5.1586-5.4769 7.5786-10.639 6.2178-13.265 20.285-28.281 29.453-31.442 2.0625-0.71101 7.7674-2.201 12.678-3.3111 6.9448-1.5701 10.856-3.1458 17.609-7.0948 23.608-13.805 41.422-20.903 73.307-29.211 15.49-4.0363 32.216-5.0525 51.894-3.1531 9.9627 0.96161 13.754 0.97008 18.952 0.0423 3.5736-0.63791 13.669-1.2797 22.435-1.4262l15.938-0.26634 16.805-5.8067c25.82-8.9216 66.496-9.3121 94.153-0.90377 3.277 0.99628 7.9956 1.8114 10.486 1.8114 2.4902 0 5.6533 0.42795 7.029 0.95099 1.3757 0.52305 6.4648 1.5464 11.309 2.2741 5.0863 0.76409 11.086 2.3805 14.2 3.8255 2.9659 1.3763 8.2355 2.872 11.71 3.3238 18.126 2.3569 40.935 12.753 58.285 26.565 7.7362 6.1589 11.863 10.482 24.611 25.784 1.8774 2.2535 2.7389 2.4702 11.719 2.9477 10.789 0.57367 18.774 3.391 28.911 10.201 26.745 17.966 29.406 20.458 31.343 29.341 0.6487 2.9753 8.1274 8.1709 16.002 11.117 6.8515 2.5635 11.327 5.8398 18.457 13.513 3.3542 3.6094 7.8598 8.4609 10.012 10.781 5.8409 6.2956 9.1934 13.986 13.27 30.438 4.0794 16.465 4.2221 16.709 12.68 21.655 13.702 8.0134 31.767 29.415 38.029 45.053 5.3609 13.388 9.44 34.736 9.6513 50.51l0.1758 13.125 3.945 7.7239c7.995 15.654 6.7468 43.951-3.0502 69.151-1.4033 3.6094-3.2987 8.8828-4.2122 11.719-2.9803 9.2525-14.835 38.13-17.178 41.844-1.2576 1.9935-5.23 9.7418-8.8277 17.218-7.2314 15.028-16.822 32.281-20.812 37.439-1.4219 1.8382-3.5263 4.903-4.6764 6.8108-2.7775 4.607-26.741 26.883-32.559 30.266-23.592 13.72-34.051 23.635-39.27 37.232-5.3446 13.922-14.044 28.357-22.487 37.314-12.029 12.761-21.118 26.521-21.118 31.972 0 1.0291-0.56016 3.0103-1.2448 4.4027-1.4191 2.8858-3.7792 12.9-5.7892 24.563-2.2582 13.104-4.9859 24.342-8.0781 33.281-3.9263 11.351-4.9524 14.498-7.9447 24.375-1.406 4.6406-3.2512 9.4922-4.1004 10.781-0.84921 1.2891-2.7581 5.5078-4.2421 9.375-4.0959 10.674-14.544 30.661-19.603 37.5-2.4792 3.3516-5.3611 7.765-6.4042 9.8078-2.4285 4.7558-20.981 25.46-30.239 33.746-15.006 13.43-34.229 36.541-34.229 41.151 0 1.843 1.2352 2.497 11.621 6.153l8.3398 2.9358 8.4207-4.2406c4.6314-2.3323 8.9294-4.2406 9.5512-4.2406s5.7358-2.7934 11.365-6.2077c20.893-12.673 30.526-15.25 61.328-16.404 24.02-0.89989 49.012-2.3655 52.956-3.1055 1.8168-0.34084 5.3683 0.15044 9.0061 1.2458 3.3034 0.9947 7.3225 2.0776 8.9312 2.4063 3.4532 0.70579 11.771 6.587 19.708 13.935 6.9358 6.4213 12.214 18.407 15.381 34.924 1.0794 5.6301 3.634 16.225 5.677 23.545 2.0429 7.3198 4.545 17.114 5.5601 21.765 1.015 4.651 2.7083 10.645 3.7627 13.32 1.0544 2.6752 2.5451 7.8574 3.3125 11.516 1.4665 6.9913 3.892 12.469 7.3311 16.556 7.4704 8.8781 8.4826 25.12 2.3893 38.34-3.4022 7.3811-3.7485 5.9725 3.8129 15.507 13.772 17.364 15.997 36.282 6.9642 59.194-3.0646 7.7735-4.4262 17.161-4.6043 31.743-0.1557 12.736-4.7312 31.36-11.977 48.75-1.289 3.0937-3.0886 7.9453-3.9991 10.781-0.9104 2.8359-2.6229 6.8438-3.8056 8.9063-4.9529 8.6378-10.867 26.197-14.014 41.611-6.927 33.921-7.7818 36.195-14.973 39.828-7.5895 3.8336-10.641-10.28-5.7504-26.595 0.8501-2.8359 2.2051-8.7422 3.0111-13.125 2.8857-15.692 6.5723-28.874 12.585-45 1.6341-4.3828 3.3548-9.5437 3.8237-11.469 0.9933-4.079 5.0538-14.739 7.4157-19.469 0.9012-1.8047 2.5934-6.2344 3.7604-9.8437 1.1671-3.6094 3.1526-8.6209 4.4125-11.137 2.6636-5.3191 2.6152-10.977-0.1834-21.423-1.9243-7.1819-2.399-7.6973-25.276-27.44-7.17-6.1875-15.601-13.62-18.736-16.516-3.1347-2.8963-7.4305-6.343-9.5464-7.6595-2.1158-1.3163-8.444-7.1265-14.062-12.911-12.213-12.575-34.618-32.757-36.364-32.757-0.68391 0-3.5193-1.2144-6.3008-2.6987-11.448-6.1089-24.128-8.0136-53.8-8.081-10.828-0.024-21.164-0.3855-22.969-0.802-6.8066-1.571-8.4375 0.1285-8.4375 8.7925 0 16.929-7.9265 21.661-24.94 14.89-5.8256-2.3185-8.0697 1.5088-3.5405 6.038 3.2021 3.2022 11.218 6.9601 16.404 7.6906 2.2591 0.3183 7.6141 1.4207 11.9 2.4498 21.295 5.1135 47.091 0.631 51.627-8.9712 2.955-6.2544 5.5913-8.2485 8.125-6.1458 2.9937 2.4846 0.98787 10.162-4.4096 16.879-2.1599 2.6877-2.7966 4.1682-2.1612 5.0255 0.49541 0.6685 2.0068 2.8604 3.3587 4.8712 9.7908 14.562 27.835 24.817 40.909 23.248 7.7388-0.9285 10.007 2.3976 5.3835 7.8929-7.5705 8.9971 5.6536 34.809 23.239 45.359 7.4388 4.4627 9.3078 6.9714 6.6458 8.9201-3.4079 2.4947-10.933-1.2274-20.416-10.098-8.5492-7.9974-12.105-7.9631-23.185 0.2239-13.259 9.7966-23.677 19.864-26.992 26.084-1.6368 3.071-3.9396 6.7519-5.1172 8.1797-7.5266 9.1255-16.533 26.049-17.846 33.534-0.36185 2.0625-3.5761 12.851-7.1428 23.974s-7.3679 23.99-8.4471 28.594c-1.8484 7.884-5.471 15.401-7.4222 15.401-3.1975 0-7.775-9.9773-6.5302-14.234 0.50028-1.7106 1.5529-7.118 2.3392-12.016 0.78628-4.8984 2.8436-13.547 4.5719-19.219 1.7283-5.6718 3.3965-11.789 3.7072-13.594 0.31067-1.8047 1.8753-6.0234 3.4769-9.375s3.6266-8.2244 4.4999-10.828c5.0645-15.102 30.826-47.794 49.307-62.57 7.3885-5.9076 14.531-13.064 14.531-14.559 0-6.7117-6.7039-16.247-16.984-24.158-3.0193-2.3233-10.031-8.4708-15.581-13.661-14.707-13.754-16.87-14.014-18.914-2.2749-3.3006 18.954-19.028 53.028-25.202 54.602-12.296 3.1339-30.931-21.806-31.098-41.617-0.0184-2.1849-1.0709-7.9659-2.339-12.846-1.2681-4.8806-2.5918-11.031-2.9416-13.668-0.71147-5.3633-2.26-6.8606-8.1681-7.8977-4.4906-0.7883-10.178-5.8135-12.868-11.37-8.1666-16.87-34.789 0.1265-27.686 17.676 2.3548 5.8186 4.2815 11.096 4.2815 11.729 0 0.6321 1.6658 5.0484 3.7019 9.8138 6.0713 14.21 11.611 37.096 10.936 45.177-0.30372 3.6353-0.94128 11.672-1.4168 17.86-0.47554 6.1875-1.5355 14.557-2.3555 18.598-1.6437 8.1013-1.9669 24.626-0.63666 32.558 0.46984 2.8018 1.355 9.1019 1.9671 14 1.8819 15.061 4.9937 24.846 12.722 40.006 15.144 29.707 19.012 43.865 14.051 51.436-1.4768 2.2539-5.8701 3.2194-7.4518 1.6377zm-611.18-49.3c4.0267-3.221 13.932-12.186 22.011-19.922 8.0796-7.7359 17.089-16.178 20.022-18.76 5.0754-4.4695 5.3381-4.92 5.4662-9.375 0.21248-7.3928 7.8889-8.8377 26.853-5.0541 5.5732 1.1119 14.724 2.0985 21.094 2.2743 6.1875 0.1707 20.109 0.6065 30.938 0.9684 19.451 0.6501 19.8 0.6276 29.062-1.8723 5.1562-1.3917 13.383-3.5808 18.281-4.8647 13.416-3.5162 29.976-13.557 43.125-26.148 3.3516-3.2093 7.7351-6.918 9.7412-8.2415 2.0061-1.3236 6.2248-4.5504 9.375-7.1706 26.529-22.066 42.108-29.401 61.101-28.769 18.723 0.6229 36.274-2.2214 54.615-8.851 2.928-1.0583 9.2659-3.1311 14.084-4.6061 14.994-4.5901 22.695-11.169 24.51-20.941 1.7244-9.2822 1.5089-9.4135-12.679-7.7236-6.1694 0.7349-20.076 1.8105-30.905 2.3905-10.828 0.5798-25.172 1.4502-31.875 1.9341-6.7031 0.484-13.13 0.6262-14.282 0.3162-6.6604-1.7932-12.87 6.8424-12.893 17.928-0.0118 5.9017-0.20712 6.5902-1.9398 6.8381-4.8462 0.6934-7.5807-8.9335-4.8304-17.005 1.8812-5.5211 2.4396-5.3017-13.494-5.3017-8.815 0-16.316-0.5197-20.646-1.4305-3.7403-0.7869-11.467-1.8149-17.171-2.2848-9.2939-0.7656-19.185-2.4834-40.709-7.0702-3.7958-0.8088-8.4561-2.2637-10.356-3.233-1.9-0.9694-5.1225-2.0641-7.161-2.4328-4.8171-0.8714-6.309-1.6675-13.203-7.045-3.1604-2.4652-7.801-5.5307-10.312-6.8119-4.983-2.542-7.4807-4.9847-13.077-12.789l-3.6773-5.1284-0.29466-11.278c-0.2776-10.625-0.15692-11.522 2.086-15.497 1.3094-2.3203 4.543-8.4375 7.1859-13.594 2.6429-5.1562 6.3721-11.273 8.2871-13.594 1.915-2.3203 5.2234-6.5938 7.3519-9.4966 6.1325-8.3632 25.526-21.46 43.806-29.583 17.174-7.6314 16.649-7.2598 17.748-12.552 0.84604-4.0751 6.7933-10.853 12.639-14.404 14.254-8.6588 14.864-14.179 1.8846-17.048-3.8191-0.84436-9.0852-2.531-11.702-3.748-9.8691-4.5894-8.9877-4.9373-23.537 9.2921-17.37 16.988-19.341 18.516-29.8 23.103-16.241 7.1227-21.918 6.3018-23.053-3.3332-0.85589-7.2698 0.0687-8.3464 5.8422-6.8022 20.588 5.5065 51.417-28.945 40.436-45.188-8.3226-12.311-11.185-20.643-8.691-25.302 2.2429-4.1908 6.0532-1.5424 8.8559 6.1554 1.976 5.4272 8.1008 11.633 14.549 14.74 2.3203 1.1183 5.9699 3.9545 8.1102 6.3027 4.9027 5.379 16.597 11.393 27.821 14.308l8.2753 2.149 2.5059-2.8725c1.3783-1.5799 3.8874-4.8764 5.5758-7.3257 6.8903-9.995 11.621-2.5746 5.7064 8.95-9.6102 18.724 8.5746 56.772 32.474 67.945 8.1394 3.8051 14.046 2.4702 9.7309-2.1991-14.013-15.163-16.443-30.091-5.4644-33.575 2.3726-0.75303 2.3574-3.7345-0.0635-12.471-1.5574-5.6202-1.7831-8.3544-1.2801-15.51 0.69174-9.8409 0.38143-10.79-5.6928-17.415-2.1568-2.3522-5.0968-6.3257-6.5332-8.8298s-3.8894-5.2463-5.451-6.0938c-1.5616-0.8474-5.2089-3.592-8.1051-6.099-3.3636-2.9117-10.515-7.1549-19.797-11.747-7.9922-3.9536-17.07-8.7575-20.173-10.675-3.1031-1.9177-8.4959-4.2781-11.984-5.2454-3.4881-0.96722-7.1152-2.4582-8.0601-3.3134-2.8561-2.5847-8.6349-0.92561-26.345 7.5636l-16.406 7.8642-11.357 11.614c-7.9418 8.1214-14.144 13.462-20.625 17.76-10.017 6.6426-11.918 8.9288-15.3 18.394-1.1974 3.3516-3.1777 8.0836-4.4006 10.516-3.4721 6.9051-3.0539 11.713 1.4979 17.221 2.7287 3.3021 3.9808 5.8927 4.6936 9.7115 0.53471 2.8644 2.0523 9.124 3.3725 13.91 2.0143 7.3027 2.2319 9.2125 1.353 11.876-0.57603 1.7454-1.159 8.5872-1.2956 15.204-0.17913 8.681-0.94188 15.293-2.7395 23.749-2.6661 12.541-4.2457 26.561-5.2816 46.875-0.53281 10.449-1.0295 13.474-2.8483 17.344-1.2116 2.5781-4.2111 10.805-6.6654 18.281-13.122 39.973-26.382 61.248-50.208 80.558-15.778 12.788-17.851 13.424-43.946 13.504-22.192 0.068-29.764-2.1221-26.758-7.738 1.4124-2.6391 4.6514-3.2592 10.487-2.0076 24.026 5.1526 56.566-11.327 71.294-36.106 1.7061-2.8705 6.7255-10.833 11.154-17.694 19.462-30.154 27.885-55.33 29.027-86.766 0.82102-22.595 2.6396-35.041 6.9885-47.827 4.4657-13.13-2.4353-39.714-11.814-45.51-1.4793-0.91423-6.4706-11.765-6.4715-14.068-0.0004-1.0649 1.8555-5.4946 4.1242-9.8438 17.379-33.315 17.597-46.326 0.90327-53.933-13.353-6.0852-13.2-13.489 0.16414-7.9261l7.2275 3.0088 6.422-1.4503c20.57-4.6452 33.068-17.325 29.913-30.346-2.2202-9.1634-1.7302-12.417 1.87-12.417 2.1857 0 3.3135 1.9608 4.1978 7.2982 0.66858 4.0354 4.3949 9.5768 6.4399 9.5768 0.6028 0 3.1514 1.0942 5.6635 2.4315 4.0863 2.1753 4.9744 2.3245 8.43 1.4163 2.1244-0.55834 6.7192-1.6485 10.211-2.4226 3.4915-0.7741 8.0614-2.2815 10.155-3.3498 2.094-1.0683 8.0967-3.4329 13.339-5.2546 25.875-8.9912 39.202-24.415 26.688-30.887-3.1167-1.6117-3.8803-1.5922-22.781 0.58192-17.011 1.9568-40.53 2.6512-60 1.7716-8.2372-0.37217-8.6006-0.29777-15.309 3.1344-3.7793 1.9336-7.2238 3.5156-7.6543 3.5156-2.3122 0-16.653 6.258-20.665 9.0177-2.5621 1.7624-10.139 5.9146-16.838 9.227-29.243 14.461-32.239 18.932-43.237 64.549-0.97134 4.0288-1.7693 8.6694-1.7732 10.312-0.0112 4.6496-3.2058 14.041-6.8163 20.038-1.8047 2.9974-4.3786 8.5225-5.7199 12.278-2.2784 6.3792-5.4306 11.816-11.608 20.02-2.5232 3.351-14.434 16.368-30.294 33.106-4.4214 4.6662-10.509 11.859-13.529 15.984-3.0193 4.125-7.5304 9.8203-10.025 12.656-5.5648 6.3274-20.035 26.05-23.55 32.099-1.42 2.4436-4.8358 7.5845-7.5908 11.424-2.8181 3.9278-10.608 18.387-17.809 33.057-17.201 35.041-15.54 32.271-21.008 35.035-13.62 6.8847-40.909 37.666-43.938 49.56-3.754 14.742 12.773 40.08 35.799 54.884 6.1875 3.9781 13.359 8.883 15.938 10.9 2.5781 2.0167 7.8516 4.9648 11.719 6.5513 3.8672 1.5865 9.5351 4.4025 12.595 6.2576 3.0602 1.8553 8.0356 4.5704 11.056 6.0337 3.0208 1.4633 7.5946 4.1066 10.164 5.874 2.5693 1.7674 5.5636 3.4965 6.6539 3.8426 1.7846 0.5664 29.652 5.6787 32.365 5.9375 0.61395 0.058 4.4108-2.529 8.4375-5.7502zm660.26-144.34c9.1327-12.575 12.98-22.869 14.689-39.302l0.5494-5.2833-3.5269-1.164c-3.6061-1.1902-29.584-1.5609-31.385-0.4479-1.2464 0.7703-1.1815 25.224 0.0796 29.991 5.6847 21.488 11.978 26.694 19.594 16.206zm185.34-21.914c5.5419-10.118 6.2305-25.153 1.5736-34.36-5.0915-10.066-11.953-17.454-27.751-29.882-8.7749-6.9029-18.533-14.886-21.685-17.742-3.1522-2.855-8.156-6.9809-11.12-9.1686-2.9637-2.1877-10.48-8.7954-16.703-14.684-20.56-19.454-28.158-22.028-65.145-22.068-9.65-0.0103-20.825-0.59756-26.201-1.3765-5.1562-0.74709-12.117-1.3866-15.469-1.421-3.3516-0.0347-8.8359-0.66581-12.188-1.4031-14.914-3.2806-16.243-2.5174-18.6 10.686-3.0512 17.088-7.492 19.551-25.427 14.104-7.7298-2.3479-12.461-5.7803-12.038-8.7333 0.41311-2.8808 3.0524-2.9491 9.0985-0.23569 11.7 5.2506 19.778 3.9065 19.778-3.2906 0-1.616 0.48831-4.5679 1.0851-6.5599 1.7833-5.9523-0.26816-7.377-10.623-7.377-5.4434 0-10.805-0.66872-15.544-1.9388l-7.235-1.9388-1.6541 2.0427c-2.2708 2.8044-2.0741 4.8817 0.68968 7.2848 2.7077 2.3542 2.7247 2.5398 0.91875 10.019-0.74702 3.0938-1.3648 6.3309-1.3729 7.1937-0.048 5.1425 12.252 12.274 28.003 16.236 5.355 1.347 11.683 3.412 14.062 4.5891 12.026 5.9489 51.981 5.8112 68.808-0.237 9.0398-3.2491 11.922-3.1647 13.832 0.4051 0.92184 1.7226 3.1312 2.8441 9.2607 4.7012 14.88 4.5082 18.93 7.5346 51.175 38.24 11.859 11.293 23.711 22.268 26.338 24.39 2.6264 2.1215 8.477 7.0213 13.001 10.888 4.5243 3.8672 10.735 8.6041 13.801 10.526 3.0661 1.9224 6.683 4.3669 8.0375 5.4324 3.805 2.993 5.7904 2.0694 9.2917-4.3227zm-557.39-22.026c5.3698-6.0377 8.7397-6.0889 9.8099-0.1489 0.97933 5.4356 1.685 5.8518 9.92 5.8518 7.9749 0 7.8196 0.079 13.6-6.9102 3.4863-4.2154 7.846-3.0833 9.2208 2.3945 1.3762 5.4832 18.427 3.4087 23.857-2.9027 4.3706-5.0801 7.9513-5.3203 9.8968-0.6641 1.6177 3.8717 2.7241 4.3325 10.403 4.3325h6.0436l4.8408-5.2012c4.9892-5.3606 8.5881-6.5144 10.095-3.2363 3.3143 7.2119 3.1196 7.0481 8.041 6.7655 4.9088-0.282 4.2628 0.218 12.677-9.8124 4.2731-5.0941 9.2747-4.4896 9.3084 1.125 0.0501 8.3442 12.084 5.8375 17.814-3.7108 5.6974-9.4946 12.172-9.7735 12.172-0.5242 0 8.6341 10.391 4.6389 14.993-5.7645 5.4971-12.427 12.609-12.815 11.968-0.6525l-0.24257 4.6052 4.5297-0.1584c5.5495-0.194 7.3946-1.7196 11.147-9.2166 4.7953-9.5813 7.3422-11.053 11.024-6.3722 1.5995 2.0334 1.87 3.2637 1.3693 6.2275l-0.62401 3.6935 4.3102-0.4859c6.9998-0.7889 8.6359-2.4614 11.482-11.737 4.2922-13.99 11.606-14.415 11.606-0.6747 0 5.8775 1.1876 6.7026 6.5559 4.5546 3.608-1.4437 7.5066-8.255 7.5066-13.115 0-8.0386 8.0774-6.1756 9.8401 2.2696 1.401 6.712 5.0765 4.7186 8.0265-4.3531 3.9756-12.226 11.196-15.283 11.196-4.7401 0 11.371 7.0655 8.4295 10.237-4.2621 1.0432-4.1743 2.7031-8.2478 3.8651-9.4846l2.0367-2.168-4.5538-2.3234c-13.262-6.7664-16.76-11.792-17.49-25.129-0.70914-12.948 5.3907-24.243 13.093-24.243 1.3392 0 3.9239-0.92034 5.7439-2.0452 2.5633-1.5842 5.5204-2.2029 13.122-2.7455 14.723-1.0508 14.488-2.5014-1.045-6.4355-25.44-6.4433-33.781-25.934-18.291-42.74 4.1182-4.4677 6.8027-5.5975 15.506-6.5257 10.555-1.1257 9.6697-3.6297-3.0044-8.502l-6.5625-2.5228-37.5-0.32859c-53.322-0.46724-52.314-0.24007-48.659-10.965 1.2658-3.7148 1.3343-5.5151 0.44334-11.651-3.4447-23.725-5.2964-26.564-20.044-30.728-4.2227-1.1923-10.992-3.308-15.043-4.7016-6.2382-2.146-7.8886-2.3843-10.781-1.5566-1.8785 0.53752-5.3139 1.2521-7.6342 1.588-8.5332 1.2353-13.891 3.235-15.767 5.8842-2.424 3.4237-7.6704 15.881-7.6704 18.213 0 1.0197-1.2124 4.667-2.6942 8.105-5.7672 13.381-4.5846 17.46 4.2832 14.775 8.0617-2.4409 30.054-1.9072 33.046 0.80198 5.6172 5.0866 2.4526 7.1324-14.478 9.3596-6.1875 0.81393-14.625 2.1332-18.75 2.9316-4.125 0.79844-9.7934 1.8453-12.596 2.3262-7.9967 1.3722-7.9117 3.4988 0.66073 16.521 1.7522 2.6618 3.4034 6.461 3.6692 8.4426 0.51665 3.852 1.193 2.725-11.685 19.468-2.2077 2.8702-4.3713 5.2186-4.8081 5.2186-0.96534 0-2.5638 3.9858-3.3838 8.4375-1.6514 8.9652-2.2742 10.074-9.015 16.05-7.1352 6.3259-6.8885 6.2389-22.373 7.8878-8.8999 0.94771-27.929-10.146-37.5-21.863-21.939-26.857-29.146-25.993-15.877 1.9038 10.591 22.267 10.749 23.472 3.7183 28.345-17.095 11.847-33.57 5.6972-57.647-21.517-7.3802-8.342-8.546-8.7247-15.799-5.1859-3.1754 1.5491-6.5951 2.8166-7.5994 2.8166-1.8834 0-21.13 9.3946-37.516 18.313-5.123 2.788-11.24 6.9085-13.594 9.1567-2.3536 2.2481-6.0955 5.4786-8.3153 7.1788-16.236 12.436-31.276 36.818-27.354 44.344 2.3508 4.5101 2.3466 6.5018-0.0166 7.9776-2.3125 1.4442-2.4203 4.9633-0.23438 7.6555l1.6406 2.0208 3.2812-2.485c10.791-8.1724 20.948-4.0203 11.64 4.7582-5.4887 5.1766-1.5238 11.02 4.7478 6.9974 8.1004-5.1957 10.331-4.7744 10.331 1.9518 0 6.9736 10.714 8.1285 16.875 1.8189 5.6264-5.762 9.2028-4.4784 8.207 2.9454-1.0051 7.4936 10.34 7.9738 17.462 0.7391 5.6888-5.7792 8.5502-5.4436 8.5502 1.003 0 4.3828 1.0582 5.1203 8.6709 6.0436l5.3896 0.6535 5.5919-5.3337c7.7834-7.4241 11.018-6.7816 10.42 2.0699-0.5025 7.4408 13.86 6.9552 20.668-0.6987zm-45.09-70.78c-20.695-9.2582-8.6708-38.67 13.009-31.822 14.91 4.7102 18.964 15.826 9.7608 26.764-4.5334 5.3876-16.226 7.9847-22.77 5.0572zm263.82-2.382c-6.4753-1.8797-15.398-15.37-15.377-23.249 0.0729-27.057 38.121-25.424 45.267 1.9427 3.6868 14.118-13.196 26.152-29.89 21.306zm-79.89-37.32c-25.583-8.9031-8.3764-43.757 18.804-38.09 18.006 3.7543 22.592 21.679 8.9423 34.953l-4.1122 3.999-9.3246 0.4366c-7.4765 0.35006-10.313 0.0928-14.31-1.2982zm121.73-4.8605c-10.38-4.71-13.16-8.75-13.16-19.14 0-15.275 18.483-22.407 34.199-13.196 20.663 12.109 0.99108 42.334-21.047 32.337zm86.295 75.14c5.7246-5.7246 3.3363-18.074-3.1791-16.438-1.2307 0.3089-4.6481-0.3035-7.7211-1.3836-14.332-5.0372-17.069 4.8512-4.9471 17.871 3.6999 3.9739 11.85 3.9488 15.847-0.049zm206.09-9.285c2.3097-4.3156 2.2665-15.454-0.073-18.912-1.2213-1.8047-4.2299-6.5249-6.686-10.49-2.456-3.9645-5.8227-8.326-7.4815-9.6922s-7.6852-6.9819-13.392-12.479c-5.7067-5.4974-12.879-12.375-15.938-15.284-3.059-2.9091-10.413-10.421-16.343-16.694-6.1403-6.4952-13.404-13.125-16.875-15.401-3.3516-2.198-8.4047-6.2482-11.229-9.0003-2.8245-2.7522-7.0432-5.8359-9.375-6.8528-2.3317-1.0169-5.5379-3.2447-7.1249-4.9507-1.5871-1.706-4.1183-3.3589-5.625-3.6732-1.5068-0.31433-6.5364-1.6875-11.177-3.0515-8.029-2.36-13.239-3.1988-28.125-4.5284-7.0107-0.6262-16.581 0.58789-37.031 4.6976-6.4453 1.2953-14.25 2.8252-17.343 3.3998-3.0933 0.57463-7.0339 1.6339-8.757 2.3538l-3.1329 1.309 0.60291 7.7466c1.0461 13.44-2.9781 17.586-17.073 17.589-6.0095 0.00093-7.7344 0.29462-7.7344 1.316 0 1.9902 5.1397 3.3724 12.562 3.3782 3.6613 0.003 8.228 0.44154 10.148 0.97479 3.7529 1.0423 21.468-1.0005 41.074-4.7365 14.991-2.8565 16.001-2.7203 28.495 3.8415 6.0579 3.1818 11.349 6.6063 11.949 7.7344 1.3265 2.4908 3.5953 4.2987 5.4444 4.3383 0.76519 0.0159 4.9839 1.6722 9.375 3.6796 5.4629 2.4973 10.271 3.9412 15.228 4.5731 15.956 2.034 32.658 12.788 62.701 40.374 6.3661 5.8454 14.959 12.862 19.096 15.593 4.1368 2.7308 10.264 7.1157 13.615 9.744 6.5394 5.1282 8.7783 5.8077 10.226 3.1031zm-527.23-59.51c0.54709-1.4258-4.6211-13.419-6.8383-15.869-4.58-5.0608-7.7403-0.58687-4.339 6.1427 3.7333 7.3864 9.987 12.828 11.177 9.7262zm508.02-14.23c-0.7329-4.125-1.3409-9.1266-1.351-11.115-0.02-3.8173-2.0169-12.609-4.2905-18.885-0.7471-2.0625-1.9781-7.125-2.7356-11.25-3.8499-20.966-21.646-42.651-35.007-42.656-1.1941-0.0004-3.0925-0.51594-4.2188-1.1456-1.1776-0.65837-6.231-1.2226-11.892-1.3278-5.4141-0.1006-19.477-0.39686-31.25-0.65836-15.982-0.355-22.634-0.16214-26.25 0.76111-2.6639 0.68012-6.7419 1.5435-9.0622 1.9187-2.3203 0.37516-7.3828 2.2656-11.25 4.2009s-9.9844 4.6762-13.594 6.0907c-13.32 5.2204-12.501 8.256 2.1079 7.8107 5.5438-0.169 14.201 0.2494 19.239 0.92976 5.1759 0.69907 11.362 0.96176 14.225 0.60404 3.5768-0.44689 6.3965-0.1952 9.5909 0.85611 2.4886 0.81901 7.765 2.1033 11.726 2.854 8.9008 1.6872 10.184 2.3491 23.745 12.247 6.0149 4.3904 11.245 7.9826 11.622 7.9826 2.9267 0 10.68-3.3317 13.723-5.8968 5.8827-4.9589 7.9219-6.1167 9.8737-5.6063 4.6973 1.2284 2.4074 8.917-3.9268 13.185-9.8504 6.6371-9.9988 7.4295-2.3928 12.79 2.1477 1.5136 7.0388 6.0903 10.869 10.17 6.4915 6.9147 21.955 20.766 27.224 24.387 4.0061 2.7526 4.8512 0.62438 3.2748-8.2478zm-431.52 5.4797c3.3023-2.9885 1.6444-5.0109-4.1075-5.0109-5.2373 0-22.006-10.831-24.633-15.911-3.3782-6.5326-1.0118-14.352 5.1108-16.888 4.2558-1.7628 3.7368-4.5122-1.5971-8.4604-4.72-3.4937-12.068-13.332-15.749-21.084-2.6107-5.4994-4.2598-7.5295-9.3413-11.499-3.9233-3.0651-22.566-21.25-29.121-28.406-5.8024-6.3343-11.975-11.035-19.92-15.17l-7.209-3.7515-11.25 0.57576c-14.917 0.76341-27.656 4.6603-27.656 8.4599 0 1.9965 10.224 7.9209 25.453 14.748 1.0035 0.44992 2.6495-0.12101 4.6875-1.626 5.9417-4.3875 8.7659-2.9943 8.7659 4.3243 0 7.2504 1.1699 9.3964 7.1326 13.084 10.792 6.6752 13.887 12.066 20.047 34.919 2.545 9.442 6.1354 10.098 11.277 2.0596 3.3439-5.2273 6.8471-7.1487 9.7351-5.3394 2.4946 1.5628 2.2186 4.5486-0.81887 8.8578-5.7301 8.1293-3.7952 16.817 6.2282 27.966 10.842 12.059 46.279 24.203 52.966 18.152zm294.04-2.7785c9.2979-0.81619 8.9509-5.1137-0.52763-6.5351-3.8588-0.57862-11.351 1.0194-27.892 5.9497-6.131 1.8273 10.396 2.1678 28.42 0.58547zm-441.86-11.44c7.1388-2.3956 7.5-2.6517 7.5-5.3165 0-3.9567-2.3782-4.0568-7.3821-0.31076-2.2852 1.7107-5.4614 3.8291-7.0582 4.7074-7.0133 3.8577-3.2862 4.3516 6.9404 0.91982zm148.41-2.2328c0.3971-2.0842-12.74-14.787-15.31-14.803-2.8672-0.0184-6.068 2.6369-6.068 5.0338 0 5.9702 20.331 15.261 21.378 9.7693zm12.612-13.435c7.4999-5.0963 2.4027-14.774-8.4589-16.06-7.6738-0.90885-10.441 3.3973-5.2617 8.1886 1.3512 1.25 3.2346 4.0658 4.1854 6.2572 2.0742 4.7808 4.3168 5.1605 9.5351 1.6145zm199.62-2.3229c13.462-0.0142 20.361-7.6659 13.916-15.432-2.5142-3.0294-22.485-0.95297-26.167 2.7208l-2.2352 2.2298 2.2264 5.4779c2.538 6.2445 3.3631 7.1038 5.6474 5.8812 0.89622-0.47964 3.8721-0.87443 6.613-0.87731zm-222.6-18.83c3.0998-2.7216 3.6014-2.8546 8.5888-2.2757 11.896 1.3806 11.338-6.5106-1.3234-18.74-4.2708-4.125-8.9159-9.3984-10.322-11.719-3.4485-5.6888-6.8294-9.2031-10.769-11.194-1.8047-0.91191-7.0781-3.9656-11.719-6.786-9.8892-6.0102-16.042-8.5419-19.714-8.1114-4.1462 0.48617-3.7433 1.625 4.0044 11.317 3.9994 5.0032 9.381 12.369 11.959 16.369 2.5781 3.9998 7.1465 10.023 10.152 13.385 3.0054 3.3622 6.4625 8.0568 7.6824 10.433 5.0907 9.9136 7.0686 11.177 11.46 7.3213zm-346.21-14.834c1.8032-3.487 5.7016-16.906 8.0603-27.744 6.4213-29.507 17.807-44.426 43.993-57.644 7.2248-3.6471 29.334-18.1 31.898-20.852 2.2766-2.4436 2.4273-6.9881 0.39031-11.768-3.2498-7.6259-3.6719-14.007-3.3929-51.298l0.27356-36.562 3.6897-13.125c5.5148-19.617 6.1475-22.799 4.8014-24.145-2.0038-2.0038-9.3018 2.7347-13.656 8.8668-2.1031 2.9616-6.9879 9.8951-10.855 15.408-3.8672 5.5126-10.701 13.856-15.186 18.54-4.4851 4.6846-9.3367 10.081-10.781 11.993-5.5672 7.3659-17.048 20.994-19.342 22.96-1.3224 1.1331-2.8662 3.7758-3.4309 5.8727-0.76343 2.8352-1.9425 4.3906-4.5998 6.0681-17.273 10.904-26.94 52.462-23.92 102.83 2.3032 38.421 7.3672 59.669 12.058 50.598zm374.64-10.96c1.6233-1.956 4.4704-9.9802 5.6099-15.811 0.49914-2.554 1.9836-7.3333 3.2988-10.621 2.7697-6.923 2.6753-7.2061-5.067-15.195-3.7703-3.8906-5.4962-4.8579-12.411-6.9561-9.26-2.81-13.06-5.9-13.06-10.62 0-1.614-0.41004-4.013-0.9112-5.3312-2.4826-6.5296 1.5072-6.9349 13.117-1.3322 8.4959 4.1 16.953 6.7292 25.858 8.0392 1.906 0.28036 4.4898-0.36286 7.5-1.8671 6.9631-3.4796 31.62-7.7084 43.03-7.3799 9.4454 0.27194 16.737 2.1347 24.521 6.2642 3.3831 1.7948 7.4747 3.2379 9.1803 3.2379 4.3683 0 7.8897 3.0905 8.6028 7.5502 0.83979 5.2518 2.2527 6.0771 6.6087 3.8603 16.158-8.223 18.84-2.3105 4.5829 10.101-11.21 9.7592-11.374 10.072-9.891 18.866 1.3412 7.9516 2.7855 9.69 7.4064 8.9145 14.443-2.4239 33.458-2.1113 47.426 0.77977 16.84 3.4855 17.884 3.1499 26.001-8.3537 7.4574-10.569 17.087-22.346 25.438-31.112 3.5415-3.7171 8.3931-9.26 10.781-12.318 11.305-14.473 16.931-21.55 21.568-27.131 10.24-12.323 27.356-41.849 33.958-58.578 0.96617-2.4483 2.9674-6.878 4.4473-9.8438 1.4798-2.9658 3.6265-9.4001 4.7704-14.299 1.1439-4.8984 3.285-13.969 4.758-20.156 2.8455-11.953 7.5118-34.464 8.2317-39.711l0.432-3.1486-3.6301 0.5314c-1.9966 0.29227-5.7395 0.80144-8.3176 1.1315-7.6182 0.97525-16.433 5.8354-17.7 9.759-1.5068 4.6656-5.5429 5.6957-12.118 3.0927-2.6781-1.0603-9.7009-2.8543-15.606-3.9868-15.478-2.9682-23.965-7.4417-37.007-19.507l-10.06-9.3068-6.3355 0.4533c-11.528 0.82484-13.508-2.8713-5.6732-10.589 2.8278-2.7852 5.1501-6.0875 5.7951-8.2405 1.2436-4.1509 6.723-9.3441 12.725-12.06 3.1208-1.4122 4.1466-2.4535 4.5871-4.6562 2.1879-10.939 20.859-14.413 35.378-6.581 8.0055 4.3181 11.377 5.418 20.703 6.7549 15.947 2.2859 25.488 10.28 30.399 25.471 2.0854 6.4493-3.564 10.227-7.9863 5.3406-0.98105-1.084-2.958-2.5782-4.3932-3.3204-1.6634-0.86016-3.4042-3.1464-4.8013-6.3056-2.2603-5.1109-3.3621-5.9169-14.551-10.645-3.8437-1.6241-14.907-3.0964-27.73-3.6904-20.839-0.96528-27.852 11.623-9.8438 17.671 2.3203 0.77921 6.9609 2.3508 10.312 3.4925 23.651 8.0564 25.499 8.5511 33.99 9.0996 12.573 0.81216 24.507 5.0403 30.148 10.682 1.8379 1.8379 3.0702 0.79798 8.0692-6.8094 5.9845-9.1071 9.5862-13.979 16.459-22.266 20.902-25.201 28.209-39.724 34.905-69.375 0.9898-4.3828 2.8696-12.188 4.1773-17.344 10.002-39.438 12.691-53.352 13.313-68.906 0.7218-18.034 2.0917-34.393 3.3505-40.01 1.3939-6.2197 0.6958-7.4759-4.4788-8.0591-9.2884-1.0469-10.54-10.448-1.9736-14.818 11.802-6.0207 17.18 1.3877 17.234 23.738 0.039 16.287 0.6649 19.179 3.6184 16.727 4.0626-3.3716 12.038-35.698 14.129-57.265 2.2645-23.36 3.2696-27.188 7.14-27.188 3.2683 0 3.6301 2.8124 1.755 13.64-0.9779 5.6464-1.801 13.43-1.8293 17.297-0.1177 16.123-8.4492 46.581-19.214 70.242-4.7477 10.435-6.5903 15.787-8.0704 23.438-1.0549 5.4529-2.7423 14.159-3.7499 19.348-1.0077 5.1883-2.6391 11.557-3.6254 14.153-8.0625 21.219 5.6397 11.388 18.292-13.123 2.9705-5.7547 6.201-11.614 7.1791-13.02 0.9781-1.4062 2.7843-5.5143 4.0138-9.1293 1.2295-3.6149 2.8852-7.7379 3.6791-9.1621 2.4649-4.4213 4.3667-13.431 4.9488-23.446 0.6031-10.375 1.4445-12.107 5.3987-11.114 4.6911 1.1774 5.3642 20.22 1.0121 28.636-0.8288 1.6028-3.1674 7.5495-5.1969 13.215s-5.388 13.116-7.4635 16.557c-2.0753 3.441-3.7734 6.6289-3.7734 7.0842 0 0.45527-1.2207 2.602-2.7127 4.7706-1.492 2.1685-4.0453 6.2027-5.6739 8.9649-2.9091 4.9337-5.4669 8.237-16.223 20.95-8.864 10.477-6.9854 11.763 5.5928 3.8272 14.031-8.8523 39.659-36.889 50.421-55.16 26.231-44.535 51.561-118.87 42.45-124.57-2.8603-1.7908-4.9254 4.2121-9.7307 28.284-0.6367 3.1899-3.1546 3.7185-5.2697 1.1064-2.2962-2.8357-1.899-6.0239 3.6177-29.037 3.9052-16.291 4.1926-18.407 4.7344-34.853l0.577-17.509-2.477-2.9437c-1.3624-1.619-3.1674-5.3414-4.0113-8.272-4.3683-15.17-24.899-43.847-28.972-40.467-2.3662 1.9637-0.9647 12.082 3.8821 28.028 5.3732 17.677 5.6477 28.062 0.7166 27.113-1.3826-0.26627-1.9079-1.5211-2.4486-5.8495-2.0203-16.173-8.117-31.423-9.6873-24.23-1.1665 5.3435-2.4805 7.4808-5.3854 8.7599-2.9636 1.305-3.0092 1.427-4.5258 12.1-1.4025 9.87-5.7828 24.778-12.87 43.803-1.934 5.1915-17.756 23.193-24.548 27.931-1.8288 1.2755-5.1753 4.2605-7.4367 6.6333-7.9976 8.3915-25.582 18.935-37.988 22.778-3.6094 1.118-7.858 2.4426-9.4416 2.9436-5.4402 1.7212-13.115-1.6809-17.415-7.7201-1.1499-1.6149-4.3175-3.8899-7.2774-5.2266-2.8826-1.3018-6.4194-3.1878-7.8595-4.191-3.6209-2.5224-12.979-4.5456-19.852-4.2919-4.1554 0.15343-6.3739-0.2284-8.018-1.38-5.5124-3.861-30.718 6.6026-43.29 17.971-3.2501 2.939-10.128 8.6673-15.284 12.73-32.552 25.646-50.238 56.893-39.485 69.763 5.5629 6.6583 4.2036 8.1226-8.4182 9.069-17.449 1.3082-26.199-1.0018-35.924-9.4834l-5.8253-5.0804-6.2673 0.58141c-7.4126 0.68765-11.161-0.57734-18.509-6.2467-2.6601-2.0523-6.6892-4.3636-8.9535-5.1363-14.57-4.9722-33.125-27.683-35.079-42.936-0.65019-5.0755-3.0604-8.1356-6.408-8.1356-8.1129 0-27.946-15.983-36.644-29.531-3.9403-6.1373-22.711-25.147-31.535-31.937-9.878-7.601-10.154-22.806-0.89858-49.537 1.956-5.6495 2.4761-9.4224 1.2141-8.8075-0.38671 0.18843-1.9172 0.94867-3.4011 1.6894-2.6164 1.3062-2.7864 1.2415-5.625-2.1395-3.4552-4.1154-3.761-4.1448-12.45-1.1957-23.033 7.8177-25.805 11.248-27.631 34.198-1.0496 13.192-1.472 14.999-6.7069 28.697-5.4806 14.341-9.6722 21.274-19.145 31.665-2.7296 2.9942-4.963 5.8044-4.963 6.2448 0 4.6964-30.71 31.7-45.284 39.819-7.6647 4.2697-8.396 5.3054-10.961 15.524-1.1004 4.3828-3.2601 12.322-4.7993 17.643-2.3974 8.2878-2.7583 10.953-2.5177 18.595 0.48797 15.496-19.941 17.459-42.17 4.0518-3.2959-1.9879-7.1624-3.8712-8.5921-4.1852-5.4039-1.1869-10.394-11.118-12.724-25.324-1.3418-8.1802-2.5938-9.2428-4.142-3.5156-1.3494 4.9916-3.5386 7.7344-6.1733 7.7344-3.9976 0-4.3091-2.2483-2.8326-20.441 5.083-62.628-14.86-87.869-51.075-64.64-6.4986 4.1682-8.4518 6.3551-8.6928 9.7325-0.2124 2.9767-0.016 3.0139 8.9596 1.6952 16.932-2.4876 34.496 25.048 35.019 54.903 0.11307 6.4453 0.66224 12.906 1.2204 14.358 1.6001 4.1614 1.2163 6.1845-1.6881 8.8981-1.4866 1.3889-3.3959 3.8964-4.2428 5.5722-0.90279 1.7863-2.2582 3.0469-3.276 3.0469-3.4344 0-3.9095-2.029-3.3211-14.184 0.94433-19.508-3.0314-22.55-14.237-10.894-8.3211 8.6558-10.284 11.515-11.661 16.983l-1.1151 4.4283 6.8166 13.318c12.587 24.591 16.625 26.822 16.811 9.287 0.0652-6.1191 2.0777-10.267 5.3844-11.097 9.3381-2.3437 7.1708 23.157-3.3964 39.963-1.462 2.325-3.1588 5.8028-3.7707 7.7283-2.6705 8.4033-9.4217 9.5879-14.93 2.6197-7.2078-9.1186-8.1811-15.735-3.0243-20.56 5.513-5.1582 4.522-10.812-4.2171-24.059-10.425-15.803-9.1797-26.946 4.7405-42.401 3.3624-3.7333 6.3716-7.9409 6.6872-9.3504 0.31554-1.4094 0.95228-4.0391 1.415-5.8438 2.8629-11.166 0.79397-15.936-6.9156-15.943-7.7415-0.007-12.595-1.4629-15.903-4.7706-5.0659-5.0659-6.2959-3.3365-6.3171 8.8818-0.0114 6.627-0.7377 10.871-5.794 33.863-0.56698 2.5781-2.6938 9.75-4.7262 15.938-3.6921 11.24-3.6951 11.261-3.3909 24.375l0.30446 13.125 4.3301 8.9062c2.3816 4.8984 4.6435 9.9609 5.0265 11.25 8.1444 27.41 31.334 52.654 38.931 42.38 1.3915-1.882 3.2458-3.0487 5.4997-3.4602 10.074-1.8392 15.179-14.96 13.711-35.241-0.67281-9.2957 0.39654-11.43 4.7362-9.4526 9.4435 4.3028 5.9592 41.007-5.4756 57.68-2.4281 3.5404-4.4147 7.4705-4.4147 8.7335s-0.45503 3.1466-1.0112 4.1858c-0.55614 1.0392-1.8347 7.2341-2.8413 13.766-2.01 13.044-3.9643 23.167-6.0064 31.112-0.73124 2.845-1.0855 6.1057-0.78736 7.246 0.33427 1.2782-0.25477 3.4239-1.5361 5.5956-1.2525 2.1229-2.7894 7.6248-3.8681 13.848-0.98441 5.679-3.2071 16.232-4.9393 23.45-3.5319 14.718-3.7081 19.94-1.6616 49.219 1.6953 24.254 4.1238 40.014 6.5377 42.428 1.0912 1.0912 4.6212 2.2125 9.6217 3.0562 4.344 0.73294 9.5856 1.96 11.648 2.7268 6.9499 2.5838 25.023 1.3686 27.704-1.8628 1.1449-1.3795 1.1524-1.3458-5.3343-23.848-1.2634-4.3828-2.8441-11.133-3.5125-15-0.66847-3.8672-3.267-15.105-5.7745-24.972-3.8707-15.232-4.4241-18.488-3.6648-21.562 3.1199-12.634 14.763 8.9623 21.044 39.035 1.1308 5.4141 3.5272 13.641 5.3252 18.281 1.798 4.6406 3.9155 11.18 4.7055 14.531 2.3679 10.045 2.6992 10.584 6.173 10.032 27.943-4.4404 40.356-1.7468 49.714 10.788 6.1031 8.1744-3.4979 24.722-22.762 39.231-2.2404 1.6874-2.9985 2.8635-2.5684 3.9844 1.0405 2.7116 4.0542 1.7897 12.117-3.7069 10.836-7.3868 20.951-10.343 33.552-9.8048 4.9321 0.21053 26.241 7.8397 33.381 11.951 11.914 6.8606 12.865 7.0668 22.545 4.8875 11.98-2.697 20.005-2.0056 28.049 2.4163 5.9172 3.2525 20.087 14.329 20.087 15.702 0 1.0664 16.535 19.506 21.89 24.412 5.0506 4.6266 7.9756 5.4977 10.054 2.9939zm118-119.51c-6.5678-6.5678 6.4893-20.564 19.184-20.564 1.8903 0 4.9515-0.63281 6.8026-1.4062 1.8511-0.77344 5.0294-1.4062 7.0628-1.4062 5.0798 0 6.7181-1.1006 8.6375-5.8024 0.90735-2.2227 2.4607-5.7288 3.4519-7.7913 2.357-4.9045 2.2893-5.8316-0.86248-11.821-2.6494-5.0346-2.8964-6.392-5.5268-30.366-1.5389-14.026-0.75837-28.526 1.8674-34.69 1.3185-3.095 3.1028-8.3684 3.9652-11.719 2.2004-8.5482 6.1818-16.329 11.991-23.435 8.7474-10.7 10.57-7.4554 3.4321 6.1079-2.6568 5.048-5.6589 11.962-6.6714 15.363-3.4103 11.458-5.3126 17.407-7.3732 23.06-2.1066 5.7789-1.4853 19.491 1.2106 26.719 0.48079 1.2891 1.2335 4.8281 1.6726 7.8645 0.49362 3.413 2.426 8.7819 5.0613 14.062 7.6201 15.269 7.1604 17.77-8.0324 43.698-6.3023 10.755-15.618 14.481-21.682 8.6719-4.7485-4.5493-14.753-3.4052-18.28 2.0905-2.4536 3.8231-3.2655 4.0104-5.9118 1.364zm-51.084-14.432c-4.0529-0.99304-15.443-6.9152-18.825-9.7878-7.9185-6.7255-8.2477-31.453-0.52859-39.703 6.4944-6.9414 12.355-0.59367 6.2025 6.7181-5.3055 6.3052-6.0198 13.146-2.1743 20.822 2.6821 5.354 5.5881 5.6804 23.814 2.6745 18.524-3.055 24.893-1.7254 29.278 6.113 4.6414 8.2969 2.4344 11.32-7.6423 10.468-5.7693-0.48769-8.1889-0.20081-14.672 1.7395-8.6261 2.5819-8.7754 2.5911-15.452 0.95516zm-63.41-155.8c-2.4153-1.3165-6.8454-2.683-9.8447-3.0366-6.2016-0.73122-6.1849-0.72298-14.173-6.9778-3.2503-2.5449-8.1019-5.5293-10.781-6.6319-12.708-5.2299-16.572-8.5874-16.605-14.43-0.0206-3.6398-0.59131-4.1787-11.512-10.87-4.7608-2.9173-5.1323-10.342-0.75083-15.006 1.7308-1.8423 1.8158-2.4023 0.78142-5.1474-2.3264-6.174 9.6286-11.23 31.092-13.149 11.42-1.021 23.949 1.044 41.341 6.8131 6.9609 2.3091 17.297 5.0865 22.969 6.1721 23.325 4.4644 26.093 7.3336 26.291 27.247 0.11864 11.969 0.75207 13.078 7.485 13.111 7.0431 0.0343 10.04 7.6604 3.2555 8.2843-1.9196 0.17651-4.3258 1.2949-5.7985 2.6952-2.6312 2.5018-5.3124 2.607-16.949 0.66504-4.6446-0.77514-6.6666 0.84071-6.0221 4.8125 0.72805 4.4865-0.25689 5.3103-5.5367 4.631-3.2773-0.42165-5.6476-0.14809-8.2426 0.95129-2.4762 1.049-5.9282 1.4895-10.781 1.3756-3.9263-0.0922-8.1934 0.069-9.4825 0.3581-1.5335 0.34392-3.862-0.30185-6.7352-1.868zm46.15-23.788c3.7235-1.9927 3.955-4.258 0.97743-9.5652-1.5258-2.7195-3.2624-6.9077-3.8593-9.3071-1.4672-5.898-4.7394-8.7535-12.158-10.61-5.6255-1.4078-20.128-6.4098-31.424-10.839-2.5881-1.0147-5.8516-1.8449-7.2522-1.8449s-4.4445-0.50763-6.7643-1.1281c-4.8926-1.3086-11.497-0.26312-22.786 3.6069-4.7051 1.613-8.3102 2.2454-11.623 2.0391-5.247-0.3268-7.2849 1.3852-3.4294 2.881 1.2021 0.46635 5.125 2.8286 8.7176 5.2496 10.184 6.8626 14.851 8.9414 38.937 17.342 3.3516 1.169 9.4851 3.7441 13.63 5.7225 5.6488 2.6962 9.5232 3.8335 15.469 4.5408 4.3628 0.51902 9.198 1.3412 10.745 1.827 3.836 1.2048 8.6588 1.2429 10.821 0.0855zm278.46 24.515c-0.5506-1.0286-1.001-2.9694-1.001-4.3128 0-1.612-1.2751-3.6924-3.75-6.1183-2.0625-2.0217-3.75-4.082-3.75-4.5784 0-1.8205-5.0295-6.8076-8.7898-8.7158-2.1265-1.0791-5.0589-2.959-6.5165-4.1776-3.9321-3.2875-16.97-3.2575-22.617 0.052-7.9193 4.641-30.946 6.5405-42.598 3.5139-3.9241-1.0193-8.3228-2.1193-9.7747-2.4445-6.0915-1.3644-6.6323-10.934-0.75671-13.389 1.8594-0.77691 4.5379-2.3862 5.9522-3.5763 12.021-10.115 47.743-9.6564 66.135 0.84853 5.084 2.9038 10.301 5.2796 11.594 5.2796 7.8707 0 17.296 7.1918 27.863 21.261 6.5832 8.7649 6.0204 14.357-1.0374 10.306-4.3866-2.5175-5.2563-2.0672-5.5741 2.886-0.32363 5.0433-3.4035 6.8558-5.3785 3.1654zm-242.51-67.529c-1.6043-0.9783-3.8746-3.1236-5.0451-4.7674s-3.6983-4.1261-5.6175-5.5163-6.6021-6.0089-10.407-10.264c-8.5403-9.5512-25.559-19.551-36.951-21.711-2.0625-0.39108-11.555-2.6346-21.094-4.9856-23.817-5.8699-28.542-6.4823-35.862-4.6479-23.113 5.7925-35.63-0.66194-20.857-10.755 14.045-9.5957 62.355-10.69 80.029-1.8133 5.4984 2.7617 22.539 8.6197 27.793 9.5542 6.569 1.1685 27.025 14.528 29.594 19.326 0.61927 1.1571 3.3876 4.7699 6.1519 8.0284 5.1069 6.0199 5.8488 8.3004 4.1523 12.763-0.67923 1.7865-0.36631 3.2508 1.4062 6.5806 4.8181 9.0508-3.4943 14.183-13.293 8.2079zm361.66-187.77c-0.6187-0.61875-1.125-2.0932-1.125-3.2766 0-4.0831-6.7352-27.953-8.9895-31.859-2.6353-4.5664-2.7669-5.5319-0.8542-6.2658 5.6325-2.1614 10.804 9.5551 14.588 33.052 1.2031 7.4707-0.5207 11.448-3.619 8.3496zm-718.94 535.8c7.3509-4.4654 27.293-24.214 26.511-26.253-0.74716-1.9471-5.6183-1.0187-9.44 1.7992-1.5469 1.1406-4.7109 3.3591-7.0312 4.9301-12.16 8.2328-18.75 14.651-18.75 18.261 0 5.8374 0.9525 5.9755 8.7105 1.2627zm101.12-391.26c-0.49597-10.805 9.2829-46.403 16.218-59.038 0.70755-1.2891 4.546-4.3165 8.5299-6.7276 18.16-10.99 18.257-11.114 20.661-26.31 2.5048-15.832 8.4576-28.639 11.771-25.325 0.87684 0.87684 0.67149 3.1067-0.92692 10.065-4.9662 21.62-3.9412 24.064 5.6092 13.376 8.3-9.29 27.06-39.61 27.06-43.74 0-0.60653 0.86865-2.2777 1.9303-3.7137 3.8558-5.2152 5.6914-26.182 1.9357-22.11-2.1359 2.3157-4.9502 13.786-4.6489 18.947 0.30344 5.1982 0.2346 5.3807-2.0296 5.3807-6.2694 0-6.7525-11.412-1.1817-27.915l2.461-7.2904-4.104-4.1817c-2.2572-2.3-5.6037-4.66-7.4365-5.2446-9.879-3.1508-23.184-27.34-24.181-43.963-1.0112-16.852 11.115-42.752 30.681-65.533 10.349-12.05 1.4794-15.073-16.825-5.7351-11.883 6.0622-17.704-1.8351-11.103-15.065 6.6244-13.278 39.804-39.456 64.199-50.652 6.6732-3.0625 7.8317-4.2981 4.7543-5.0704-5.8312-1.4636-23.09 4.6881-30.68 10.936-5.3633 4.4144-9.4841 3.1486-8.0716-2.4794 3.8195-15.218 67.443-23.299 89.953-11.425 12.881 6.7946 7.3475 11.799-8.4857 7.6752-16.058-4.1827-41.463 3.4252-65.398 19.584-13.729 9.2689-28.06 21.564-33.362 28.622-6.9017 9.1879-6.4998 9.6754 5.829 7.0689 11.14-2.3551 36.38-4.4121 37.968-3.0942 3.4707 2.8804 0.043 7.3902-6.6763 8.7842-16.225 3.3659-48.32 59.476-45.482 79.514 2.1656 15.292 11.177 30.655 11.225 19.137 0.0915-22.2 18.17-56.01 29.35-54.892 4.3088 0.43089 3.99 1.9536-1.5076 7.2004-14.686 14.017-23.102 45.043-16.245 59.89 5.3834 11.657 11.173 14.604 16.989 8.6474 4.9951-5.1154 24.163-14.565 33.374-16.453 9.6437-1.9768 10.075-2.148 11.716-4.6521 2.555-3.8994 0.95131-5.8549-8.3914-10.233-20.549-9.6291-33.545-38.669-21.856-48.837 1.7987-1.5647 4.3823-5.3615 5.7411-8.4375 1.3589-3.076 4.2861-7.913 6.505-10.749 4.6112-5.8935 7.1128-10.402 7.126-12.844 0.0723-13.309 34.678-37.398 72.647-50.569 20.679-7.1735 51.732-8.6526 49.737-2.3691-0.85096 2.6811-2.3888 3.0457-16.456 3.9006-6.9609 0.42307-14.766 1.3829-17.344 2.1329-2.5781 0.75002-7.9658 2.2939-11.973 3.4309-4.0068 1.137-10.343 3.4608-14.081 5.1641-10.411 4.7444-12.19 8.182-2.424 4.6846 23.359-8.3656 65.508-9.1543 65.508-1.2258 0 2.6963-3.2002 3.8809-7.2793 2.6946-28.877-8.3982-95.281 14.456-93.292 32.108 0.78737 6.9855-4.0602 10.489-6.1637 4.455-3.8602-11.073-24.719 18.171-24.801 34.772-0.0595 11.923 5.7216 20.019 8.8542 12.401 5.5865-13.586 12.18-22.946 22.693-32.215 17.932-15.809 31.102-21.991 35.796-16.804 2.3722 2.6213 0.85573 3.884-7.7253 6.4326-11.786 3.5006-32.62 22.698-39.216 36.136-6.8799 14.017-1.0407 36.631 6.1275 23.73 12.279-22.099 43.151-47.261 50.593-41.236 2.6475 2.1438 1.8092 4.1688-2.5806 6.234-19.631 9.2352-46.694 40.024-40.037 45.548 2.8149 2.3361 1.7452 6.3515-2.2327 8.3808-3.8558 1.9671-5.1315 4.5802-4.1606 8.5224 1.6393 6.6557 3.8548 6.0937 10.274-2.6064 15.31-20.75 43.831-40.556 58.932-40.924 6.4136-0.15633 5.3855 3.8226-1.875 7.2564-26.773 12.662-49.587 37.981-58.972 65.449-3.6501 10.683-4.0908 14.033-2.0664 15.713 0.71797 0.59586 1.8356 2.3635 2.4837 3.9281 1.4551 3.5129 1.9073 2.8971 5.232-7.1256 4.34-13.083 11.554-22.935 27.196-37.144 12.849-11.671 30.747-18.193 32.735-11.929 0.84331 2.6571-0.94207 4.2318-6.2384 5.5024-25.592 6.1395-48.634 53.145-36.157 73.76 1.8094 2.9894 3.5687 6.8064 3.9095 8.4822 1.227 6.0322 1.8775 2.8233 1.9004-9.3756 0.0328-17.413 6.9118-43.716 11.843-45.28 4.3058-1.3666 5.5153 2.6811 3.1209 10.445-4.2451 13.764-7.0472 37.141-4.8174 40.19 1.5745 2.1533 2.0026 1.4456 3.3808-5.5878 3.058-15.607 10.598-29.318 21.576-39.236 8.8149-7.9637 11.052-2.189 2.8511 7.3612-16.315 19-21.082 45.03-11.553 63.082 6.6218 12.544 9.8752 10.905 12.095-6.0922 4.0054-30.663 18.509-57.409 40.445-74.586 38.31-29.998 65.316-42.703 91.742-43.162 19.315-0.33492 19.088 5.215-0.27518 6.7236-29.123 2.2691-58.631 18.291-91.251 49.546-14.37 13.769-26.601 39.217-28.515 59.331-0.31903 3.3516-1.0082 9.6797-1.5314 14.063-1.1484 9.619 0.50641 17.82 4.307 21.344 3.2003 2.9675 2.9366 4.7526-0.94144 6.3729-5.2658 2.2002-3.9293 9.108 3.5671 18.436 4.2908 5.3393 4.962 4.6933 4.9132-4.7284-0.0388-7.4814 0.2343-8.7917 2.8873-13.854 1.6116-3.0748 3.228-7.8994 3.5921-10.721 0.98931-7.6686 4.5762-20.278 7.9638-27.997 1.6521-3.7643 3.5708-8.4509 4.2636-10.415 3.2493-9.2095 20.946-28.49 25.648-27.943 4.512 0.52457 3.4606 3.1828-4.7306 11.961-9.1657 9.8226-11.688 14.419-16.238 29.589-7.6826 25.617-8.0617 28.65-5.6118 44.904 0.77039 5.1113 1.4007 10.893 1.4007 12.848 0 8.7569 5.8453 19.888 11.835 22.538 8.8068 3.8956 9.7783 1.9141 5.5885-11.398-5.0419-16.019-4.4091-24.887 2.863-40.124 5.1256-10.74 12.564-12.452 7.9464-1.8297-10.631 24.455-8.5808 40.376 7.2094 55.987 14.25 14.088 18.073 13.968 21.356-0.67085 2.371-10.572 4.5542-16.087 9.1631-23.145 1.7052-2.6115 5.288-8.1232 7.9618-12.248 18.987-29.292 62.847-61.105 88.651-64.301 9.9838-1.2365 11.801-1.6545 11.801-2.7147 0-2.43-3.9042-2.7243-18.859-1.4213-32.762 2.8545-51.37 8.8685-66.955 21.639-7.7483 6.3492-12.379 1.7385-5.4379-5.4144 21.543-22.2 83.787-32.867 109.01-18.681 14.586 8.2048 16.576 8.3524 15.659 1.1618-1.8342-14.397-3.4457-17.327-14.72-26.764-7.96-6.6631-9.5812-9.911-4.9471-9.911 9.2675 0 29.088 23.628 30.671 36.562 3.2594 26.643 5.2808 29.662 10.422 15.567 2.3978-6.5744 2.4548-7.1775 1.5243-16.12-0.53175-5.1098-1.2068-14.431-1.5002-20.715-1.5721-33.671-22.893-64.044-44.956-64.044-10.527 0-20.071-7.2114-11.622-8.7804 16.02-2.9748 41.773 12.599 53.276 32.218 1.6628 2.8359 4.8107 7.0736 6.9954 9.4171 4.0691 4.3648 8.49 14.189 10.743 23.872 3.6505 15.691 10.774-3.38 8.4069-22.508-0.63797-5.1562-1.2599-13.283-1.382-18.06-0.19828-7.751-0.53344-9.237-3.1165-13.814-4.1528-7.3582-2.9527-10.364 2.4434-6.1192 1.9694 1.5491 3.3178 1.8915 5.6935 1.4458 6.6194-1.2418 8.7075 1.3114 5.7356 7.0131-2.0584 3.949-1.8536 9.9583 1.1017 32.335 1.0046 7.6057-0.4171 20.779-2.9591 27.42-0.54581 1.426-1.7592 6.1786-2.6963 10.561-2.2284 10.422-3.266 12.933-6.9728 16.875-10.907 11.599-8.2658 13.041 7.6488 4.1754 12.291-6.8467 13.173-7.6546 13.173-12.06 0-1.7026 0.6619-4.3755 1.4708-5.9399 0.809-1.5644 1.8547-5.2919 2.3238-8.2834 0.7305-4.6582 1.3477-5.8359 4.2989-8.2035 8.7762-7.0405 15.412-29.222 13.58-45.397-1.0322-9.1167-4.1117-25.042-5.5985-28.953-1.2392-3.2593-0.5963-4.8263 2.4561-5.9868 2.7386-1.0412 2.6838-6.2557-0.1527-14.507-1.6862-4.906-1.647-7.4646 0.1371-8.9453 1.9049-1.5809 3.9829 0.37682 5.1254 4.829 0.4487 1.7483 1.9004 6.3428 3.226 10.21 5.5417 16.166 7.899 48.547 4.8796 67.031-0.8358 5.1175 3.9674-0.13583 6.8576-7.5 1.8212-4.6406 3.8982-9.4743 4.6156-10.741 0.7173-1.2672 1.6556-6.7516 2.085-12.188 0.9618-12.177 1.7549-16.486 5.4288-29.499 5.0706-17.96 2.2533-25.863-17.008-47.712-10.806-12.258-12.208-14.858-7.1428-13.251 2.7828 0.88323 20.558 19.08 24.909 25.501 1.8346 2.707 3.9087 4.9219 4.6092 4.9219 1.7157 0 1.6151-3.7826-0.1684-6.3288-1.0791-1.5408-1.2834-3.2524-0.8121-6.8052 0.6255-4.7156 0.6018-4.7724-3.617-8.6969-2.3356-2.1727-6.2979-7.1144-8.8052-10.982-15.929-24.57-31.571-39.07-37.291-34.57-3.1705 2.4939-5.0184 1.7177-6.8181-2.8637-2.1458-5.463-4.4533-6.0789-20.264-5.4094-12.637 0.53514-17.053 1.2494-33.514 5.4205-15.501 3.9278-20.463 0.39648-6.7337-4.7918 14.219-5.3732 33.853-8.7795 47.474-8.2365 8.6199 0.34363 11.141-1.2724 7.5653-4.8486-6.2345-6.2345-69.273-5.278-89.917 1.3643-7.5152 2.418-9.8873 2.1776-9.8873-1.002 0-7.4291 22.72-11.861 62.344-12.161 33.06-0.25051 33.193-0.27809 27.45-5.6881-5.4458-5.1295-16.956-13.379-23.7-16.985l-6.5625-3.5095-17.633-0.30814c-16.456-0.28758-25.596 0.55661-34.502 3.1869-0.83048 0.24526-2.4687-0.33038-3.6404-1.2792-2.9235-2.3673-1.3689-5.1131 3.766-6.6516 3.3629-1.0075 4.1319-1.7634 5.7462-5.6477 1.3734-3.3048 2.7182-4.892 5.1118-6.0334 8.13-3.857-31.48-35.287-44.47-35.287-0.85693 0-3.4733-1.0196-5.8142-2.2657s-5.9235-2.5312-7.9613-2.8557c-13.052-2.0783-16.333-2.8675-20.051-4.8227-4.3191-2.2714-8.4716-3.267-21.155-5.0722-15.878-2.2599-23.539-2.4823-41.619-1.2084-20.264 1.4278-23.031 1.0602-25.563-3.3956-3.6524-6.4275-32.002-4.0463-40.22 3.3782-2.1269 1.9216-5.0494 3.4474-7.5634 3.9489-4.2102 0.83993-9.3563 2.0153-16.753 3.8266-17.315 4.2398-26.889 4.3114-58.125 0.43467-26.79-3.3249-43.091-0.86446-72.656 10.966-5.1562 2.0633-11.273 4.3105-13.594 4.9936-10.408 3.0643-21.949 10.094-23.026 14.023-1.2483 4.5581-4.4561 7.2945-15.652 13.351-7.6498 4.1385-12.138 5.7234-27.417 9.6806-7.7389 2.0045-15.938 6.8357-15.938 9.3916 0 2.5294-0.33534 2.4797 8.9062 1.3198 4.7848-0.60055 14.616 1.644 16.809 3.8379 2.2639 2.2639-0.19099 3.8183-11.191 7.0861-27.115 8.0551-43.084 16.454-43.115 22.678-0.006 1.1904 3.3031 0.78059 6.4752-0.80187 2.3931-1.1938 3.7856-1.3098 6.7352-0.56116 2.7348 0.69418 4.9897 0.60846 8.5247-0.32406 3.3815-0.89203 5.3352-0.98485 6.5904-0.31309 4.1181 2.204-0.40671 6.6425-9.0808 8.9076-14.904 3.8919-32.258 17.551-42.594 33.525-7.2593 11.219-6.9521 11.341 7.0534 2.8034 25.621-15.618 50.883-27.095 53.618-24.359 1.8221 1.8221-2.7345 6.4208-8.0619 8.1363-1.9155 0.61683-3.9045 1.4407-4.4202 1.8308-0.51562 0.39008-6.6328 3.5808-13.594 7.0905-37.576 18.946-58.568 40.662-65.63 67.893-0.60169 2.3203-2.4907 8.4375-4.1978 13.594-1.7071 5.1562-3.8056 12.961-4.6634 17.344-0.85781 4.3828-2.134 10.078-2.8361 12.656-0.70202 2.5781-1.7274 11.859-2.2786 20.625-0.55122 8.7656-1.2396 19.312-1.5297 23.438-0.59511 8.4619 0.63546 7.6791 4.2325-2.6924 12.004-34.613 49.936-85.669 62.28-83.829 3.5558 0.53003 2.4238 2.5294-6.0715 10.725-4.7303 4.5632-9.6708 9.9842-10.979 12.047-1.3081 2.0625-4.3598 6.0703-6.7817 8.9062-4.6853 5.4864-13.955 19.423-21.112 31.739-4.1008 7.0577-9.6335 20.643-13.663 33.548-2.0538 6.5778-3.6102 8.2858-6.8172 7.4809-1.5689-0.39376-2.4311-0.11614-2.8247 0.90948-1.4726 3.8376 1.0156 6.0104 6.8826 6.0104 6.4004 0 11.762 2.1773 17.561 7.1322 5.8322 4.9826 7.3 4.8556 8.7356-0.7558 4.2483-16.605 16.356-38.112 19.237-34.172 1.4177 1.9388 0.87933 3.9048-4.0176 14.671-2.6927 5.9199-6.5702 18.202-9.2835 29.405l-1.3318 5.4991 3.2214 6.6958c4.3136 8.9661 6.241 15.785 6.2424 22.085 0.002 7.726 2.1745 17.663 5.134 23.481 4.6051 9.0515 6.1148 14.743 6.1148 23.053 0 12.448 3.0664 20.205 11.37 28.765 4.9369 5.089 5.1929 4.745 5.9288-7.9688 1.7888-30.901 5.3826-46.336 10.345-44.431 1.8297 0.70213 1.831 6.3631 0.005 19.213-3.1664 22.277-2.9486 42.37 0.47939 44.204 2.1315 1.1408 10.855 2.6834 14.059 2.4862 2.3106-0.14217 2.3392-0.244 2.0199-7.1999zm-88.122-215.3c-5.3468-9.5543 34.499-64.048 46.832-64.048 4.737 0 3.3373 2.62-8.0131 15-15.442 16.842-25.702 31.469-32.058 45.703-2.3138 5.1812-4.9919 6.506-6.7612 3.3445zm327.51-145.47c-8.1115-4.9819-13.933-14.391-17.719-28.636-4.4943-16.912-4.5641-16.961-17.5-12.243-5.3795 1.9619-10.625 4.0929-11.656 4.7355-1.0312 0.64265-4.1953 1.8147-7.0312 2.6045-35.928 10.006-57.025-1.0415-24.844-13.009 15.591-5.7979 29.837-13.661 29.347-16.198-1.512-7.8295-63.639-3.3742-94.802 6.7984-8.4519 2.759-9.8755 2.8834-10.626 0.92849-1.7339-4.5184 9.8562-8.7083 36.237-13.1 4.8984-0.81543 11.3-1.9 14.225-2.4102 2.9255-0.51017 9.6755-1.1062 15-1.3244 5.3245-0.21826 13.787-0.8323 18.806-1.3645 18.825-1.9964 35.968 1.3934 37.545 7.4242 1.0323 3.9474-1.5123 5.6842-30.945 21.122-6.3649 3.3385-9.5378 6.0938-7.0174 6.0938 3.4552 0 20.987-5.4406 32.929-10.219 20.918-8.3697 20.306-8.8203 29.16 21.469 3.4646 11.854 9.0711 19.688 14.089 19.688 5.759 0 6.7924-4.8646 2.5847-12.167-13.137-22.801-4.8395-42.609 9.8041-23.406 3.7291 4.8904 12.368 12.164 17.143 14.434 1.5706 0.7467 5.3675 2.8722 8.4375 4.7234 9.0933 5.4831 24.801 9.6935 24.801 6.648 0-1.7289-3.1254-3.6062-20.321-12.206-33.96-16.984-30.009-28.108 11.857-33.386 58.511-7.3756 115.4 7.8583 127.93 34.256 3.4008 7.1666-2.4502 9.7324-6.728 2.9503-5.4234-8.5983-20.259-18.872-32.58-22.561-4.6406-1.3897-10.125-3.1214-12.188-3.8481-12.238-4.3124-55.329-6.0637-73.125-2.9719-18.493 3.213-20.635 3.6709-23.078 4.934-6.6862 3.4576-2.4452 7.9915 14.704 15.72 29.456 13.274 36.813 19.429 29.81 24.937-9.4876 7.463-44.758-4.1596-66.362-21.868-9.2866-7.6121-11.148-5.6603-4.4656 4.6817 11.57 17.906 2.2888 36.419-13.421 26.77zm402.66 143.88c0-7.7929-24.167-42.998-28.52-41.546-4.4194 1.4744-0.7043 16.061 4.7427 18.621 3.8089 1.7904 17.749 15.936 21.324 21.638 0.9066 1.446 2.4526 2.2574 2.4526 1.2872zm-52.162-88.943c-1.8611-6.3806-2.9065-7.9294-11.142-16.508-3.7822-3.9398-7.793-8.3391-8.9129-9.7761-2.2003-2.8232-10.206-7.231-16.617-9.1498-7.3627-2.2033-6.2448 1.3591 1.9778 6.3028 6.765 4.0674 17.689 14.338 27.496 25.85 8.1125 9.5238 9.1585 10.001 7.1986 3.2812z"/>
</svg>
