<?xml version="1.0"?>
<svg xmlns:rdf="http://www.w3.org/1999/02/22-rdf-syntax-ns#" xmlns="http://www.w3.org/2000/svg" xmlns:cc="http://creativecommons.org/ns#" xmlns:dc="http://purl.org/dc/elements/1.1/" xmlns:svg="http://www.w3.org/2000/svg" id="svg2" viewBox="0 0 76.152 143.64" version="1.0">
  <g id="g14" transform="translate(-9.4817 -4.7409)">
    <path id="path16" d="m10.986 114.18l73.591 0.03" stroke="#636363" stroke-width="2" fill="none"/>
    <path id="path18" d="m10.482 94.281l73.814 0.029" stroke="#636363" stroke-width="2" fill="none"/>
    <path id="path20" d="m10.596 74.883l74.038 0.029" stroke="#636363" stroke-width="2" fill="none"/>
    <path id="path22" d="m10.482 55.233l74.038 0.028" stroke="#636363" stroke-width="2" fill="none"/>
    <path id="path24" d="m10.734 36.086l73.591-0.194" stroke="#636363" stroke-width="2" fill="none"/>
    <path id="path26" stroke="#000" d="m39.542 140.49c0.022 8.47 18.816 7.39 18.753-6.57 0.025-13.61-17.954-89.748-18.155-104.31-0.211-11.556 6.122-24.509 11.548-24.368 4.299 0.141 8.338 9.873 8.316 21.986 0.326 39.173-33.981 36.641-33.981 63.409 0 17.303 14.363 21.873 21.545 21.873 24.32-0.16 20.239-29.381 4.734-29.381-9.141-0.326-17.139 12.078-5.06 22.361-20.403-8.977-9.467-30.685 6.692-30.848 21.545 0.163 25.299 39.658-6.366 39.828-18.933 0.16-26.931-16.488-26.768-29.546 0-25.135 37.051-39.662 36.561-60.881 0-13.384-13.873-7.345-14.2 14.201 0.327 13.384 17.628 84.056 17.465 94.996 0 22.52-28.89 15.18-28.89 3.75 0.163-16.32 16.975-4.73 11.752-4.24-4.081 7.18-3.946 7.74-3.946 7.74z"/>
    <path id="path28" d="m47.37 133.39c0 3.79-3.161 6.87-7.054 6.87s-7.053-3.08-7.053-6.87 3.16-6.86 7.053-6.86 7.054 3.07 7.054 6.86z" stroke="#000" fill="#636363"/>
    <path id="path30" d="m55.031 110.98h2.313v2.25h-2.313v-2.25z"/>
    <path id="path32" d="m48.281 75.672h2.938v7.312h-2.938v-7.312z"/>
    <path id="path34" d="m43.073 48.511l1.393-0.24 1.96 12.937-1.392 0.24-1.961-12.937z"/>
  </g>
  <metadata>
    <rdf:RDF>
      <cc:Work>
        <dc:format>image/svg+xml</dc:format>
        <dc:type rdf:resource="http://purl.org/dc/dcmitype/StillImage"/>
        <cc:license rdf:resource="http://creativecommons.org/licenses/publicdomain/"/>
        <dc:publisher>
          <cc:Agent rdf:about="http://openclipart.org/">
            <dc:title>Openclipart</dc:title>
          </cc:Agent>
        </dc:publisher>
        <dc:title>trble clef</dc:title>
        <dc:date>2009-04-01T15:20:25</dc:date>
        <dc:description>clef, clef, clip art, clipart, image, media, music, music, png, public domain, svg, symbol, symbol, treble, treble, </dc:description>
        <dc:source>http://openclipart.org/detail/23603/trble-clef-by-anonymous-23603</dc:source>
        <dc:creator>
          <cc:Agent>
            <dc:title>Anonymous</dc:title>
          </cc:Agent>
        </dc:creator>
        <dc:subject>
          <rdf:Bag>
            <rdf:li>clef</rdf:li>
            <rdf:li>clip art</rdf:li>
            <rdf:li>clipart</rdf:li>
            <rdf:li>image</rdf:li>
            <rdf:li>media</rdf:li>
            <rdf:li>music</rdf:li>
            <rdf:li>png</rdf:li>
            <rdf:li>public domain</rdf:li>
            <rdf:li>svg</rdf:li>
            <rdf:li>symbol</rdf:li>
            <rdf:li>treble</rdf:li>
          </rdf:Bag>
        </dc:subject>
      </cc:Work>
      <cc:License rdf:about="http://creativecommons.org/licenses/publicdomain/">
        <cc:permits rdf:resource="http://creativecommons.org/ns#Reproduction"/>
        <cc:permits rdf:resource="http://creativecommons.org/ns#Distribution"/>
        <cc:permits rdf:resource="http://creativecommons.org/ns#DerivativeWorks"/>
      </cc:License>
    </rdf:RDF>
  </metadata>
</svg>
